<?xml version="1.0" encoding="utf-8"?>
<!-- Generator: Adobe Illustrator 25.0.0, SVG Export Plug-In . SVG Version: 6.00 Build 0)  -->
<svg version="1.2" baseProfile="tiny" id="g-barchart-Artboard_1-interactive-img" xmlns="http://www.w3.org/2000/svg" xmlns:xlink="http://www.w3.org/1999/xlink"
	 x="0px" y="0px" viewBox="0 0 649.405 611.257" overflow="visible" xml:space="preserve">
<g>
	<g id="other_1_">
		<rect x="89.27" y="41.085" fill="#A00404" width="10.297" height="20"/>
		<rect x="89.27" y="41.085" fill="#838484" width="0" height="20"/>
		<rect x="89.27" y="65.085" fill="#A00404" width="0" height="20"/>
		<rect x="89.27" y="65.085" fill="#838484" width="0" height="20"/>
		<rect x="89.27" y="89.085" fill="#A00404" width="0" height="20"/>
		<rect x="89.27" y="89.085" fill="#838484" width="0" height="20"/>
		<rect x="89.27" y="113.085" fill="#A00404" width="2.219" height="20"/>
		<rect x="91.473" y="113.085" fill="#838484" width="5.891" height="20"/>
		<rect x="89.27" y="137.085" fill="#A00404" width="33.109" height="20"/>
		<rect x="122.364" y="137.085" fill="#838484" width="11.047" height="20"/>
		<rect x="89.27" y="209.085" fill="#A00404" width="7.359" height="20"/>
		<rect x="96.614" y="209.085" fill="#838484" width="5.906" height="20"/>
		<rect x="89.27" y="233.085" fill="#A00404" width="21.344" height="20"/>
		<rect x="89.27" y="233.085" fill="#838484" width="0" height="20"/>
		<rect x="89.27" y="257.085" fill="#A00404" width="14.719" height="20"/>
		<rect x="89.27" y="257.085" fill="#838484" width="0" height="20"/>
		<rect x="89.27" y="281.085" fill="#A00404" width="0" height="20"/>
		<rect x="89.27" y="281.085" fill="#838484" width="0" height="20"/>
		<rect x="89.27" y="305.085" fill="#A00404" width="50.75" height="20"/>
		<rect x="89.27" y="305.085" fill="#838484" width="0" height="20"/>
		<rect x="89.27" y="449.085" fill="#A00404" width="38.984" height="20"/>
		<rect x="89.27" y="449.085" fill="#838484" width="0" height="20"/>
		<rect x="89.27" y="473.085" fill="#A00404" width="33.844" height="20"/>
		<rect x="123.098" y="473.085" fill="#838484" width="111.062" height="20"/>
		<rect x="89.27" y="497.085" fill="#A00404" width="3.688" height="20"/>
		<rect x="92.942" y="497.085" fill="#838484" width="3.688" height="20"/>
		<rect x="89.27" y="521.085" fill="#A00404" width="97.094" height="20"/>
		<rect x="89.27" y="521.085" fill="#838484" width="0" height="20"/>
	</g>
	<g id="_x31_949-bar_1_">
		<rect x="89.27" y="161.085" fill="#A00404" width="195.641" height="20"/>
		<rect x="284.895" y="161.085" fill="#838484" width="39" height="20"/>
		<rect x="89.27" y="185.085" fill="#A00404" width="87.531" height="20"/>
		<rect x="176.786" y="185.085" fill="#838484" width="72.094" height="20"/>
	</g>
	<g id="_x31_979-bar_1_">
		<rect x="89.27" y="329.085" fill="#A00404" width="119.891" height="20"/>
		<rect x="209.145" y="329.085" fill="#838484" width="32.375" height="20"/>
		<rect x="89.27" y="353.085" fill="#A00404" width="40.453" height="20"/>
		<rect x="129.708" y="353.085" fill="#838484" width="100.047" height="20"/>
		<rect x="89.27" y="377.085" fill="#A00404" width="424.359" height="20"/>
		<rect x="513.614" y="377.085" fill="#838484" width="106.656" height="20"/>
		<rect x="89.27" y="401.085" fill="#A00404" width="197.109" height="20"/>
		<rect x="286.364" y="401.085" fill="#838484" width="200.797" height="20"/>
		<rect x="89.27" y="425.085" fill="#A00404" width="158.859" height="20"/>
		<rect x="248.114" y="425.085" fill="#838484" width="104.453" height="20"/>
	</g>
	<rect id="dead-case-bar_1_" x="89.27" y="401.085" fill="#7C0404" width="116.899" height="20"/>
	
		<polyline id="line_1_" fill="none" stroke="#898989" stroke-width="3" stroke-linecap="round" stroke-linejoin="round" stroke-miterlimit="10" points="
		123.231,336.893 123.424,341.159 123.458,345.426 123.498,349.704 123.784,353.97 124.436,358.237 124.468,362.503 
		124.913,366.781 125.383,371.048 125.312,375.314 126.087,379.581 127.618,383.859 129.415,388.125 131.08,392.391 
		134.075,396.658 130.134,400.936 133.806,405.202 135.753,409.469 140.962,413.735 143.603,418.013 147.789,422.28 
		154.421,426.546 157.221,430.812 157.558,435.091 158.195,439.357 159.939,443.623 163.959,447.89 171.127,452.168 
		178.457,456.434 180.034,460.701 202.5,464.967 213.771,469.245 227.945,473.512 244.986,477.778 249.904,482.045 275.24,486.323 
		300.024,490.589 317.243,494.855 334.761,499.122 357.607,503.4 382.958,507.666 413.117,511.933 447.583,516.199 489.703,520.477 
		529.78,524.744 561.859,529.01 400.517,533.277 	"/>
</g>
<style>
#g-barchart-Artboard_1-interactive-img rect, #g-barchart-Artboard_1-interactive-img circle, #g-barchart-Artboard_1-interactive-img path, #g-barchart-Artboard_1-interactive-img line, #g-barchart-Artboard_1-interactive-img polyline, #g-barchart-Artboard_1-interactive-img polygon { vector-effect: non-scaling-stroke; }
</style>
</svg>

