<?xml version="1.0" encoding="utf-8"?>
<!-- Generator: Adobe Illustrator 25.0.0, SVG Export Plug-In . SVG Version: 6.00 Build 0)  -->
<svg version="1.2" baseProfile="tiny" id="g-map-update-Artboard_2-interactive-img" xmlns="http://www.w3.org/2000/svg" xmlns:xlink="http://www.w3.org/1999/xlink"
	 x="0px" y="0px" viewBox="0 0 360.564 640.815" overflow="visible" xml:space="preserve">
<g>
	<g id="dot-yichun_1_">
		<circle fill-rule="evenodd" fill="#CB181D" cx="1435.378" cy="178.152" r="7.048"/>
		
			<ellipse transform="matrix(0.9239 -0.3827 0.3827 0.9239 -46.5654 135.2457)" fill-rule="evenodd" fill="#CB181D" cx="316.681" cy="184.673" rx="3.116" ry="3.116"/>
	</g>
	<g id="dot-baotou_1_">
		<circle fill-rule="evenodd" fill="#CB181D" cx="1222.877" cy="287.944" r="7.048"/>
		
			<ellipse transform="matrix(0.7071 -0.7071 0.7071 0.7071 -106.4333 220.8356)" fill-rule="evenodd" fill="#CB181D" cx="213.355" cy="238.894" rx="3.116" ry="3.116"/>
	</g>
	<g id="path-4_1_">
		<path fill="none" stroke="#FCFCFC" stroke-miterlimit="10" d="M182.681,168.093c26.316,9.687,34.154,38.442,30.452,70.666"/>
		<g>
			<polygon fill="#FCFCFC" points="211.626,236.605 213.142,238.463 214.999,236.946 214.855,238.378 212.998,239.894 
				211.481,238.037 			"/>
		</g>
	</g>
	<g id="path-2-1_1_">
		<g>
			<path fill="#020202" d="M236.237,350.703c-1.36-2.649-2.705-5.235-4.015-7.839c-0.407-0.809-0.839-1.635-1.055-2.506
				c-0.707-2.85,1.308-5.846,4.15-6.29c3.088-0.483,5.842,1.606,6.134,4.639c0.098,1.016-0.053,1.983-0.512,2.886
				c-1.519,2.985-3.055,5.962-4.585,8.942C236.335,350.573,236.305,350.606,236.237,350.703z M235.898,339.522
				c0.13,0.637,0.117,1.137-0.521,1.406c-0.108,0.045-0.136,0.282-0.201,0.43c0.028,0.033,0.055,0.066,0.083,0.099
				c0.665-0.462,1.333-0.466,2.05-0.066c-0.056-0.234-0.131-0.427-0.272-0.533c-0.537-0.404-0.6-0.566-0.393-1.325
				c0.692,0.262,1.383,0.522,2.077,0.784c0.096-0.351,0.014-0.566-0.256-0.753c-0.392-0.27-0.728-0.629-1.133-0.873
				c-0.622-0.375-0.886-0.862-0.786-1.598c0.036-0.262-0.112-0.549-0.176-0.825c-0.066,0.001-0.132,0.001-0.198,0.002
				c-0.072,0.173-0.172,0.341-0.207,0.521c-0.038,0.194-0.045,0.405-0.014,0.601c0.08,0.506-0.123,0.831-0.536,1.109
				c-0.471,0.317-0.888,0.715-1.35,1.047c-0.274,0.197-0.395,0.411-0.271,0.767C234.488,340.054,235.182,339.792,235.898,339.522z"
				/>
		</g>
		<line stroke="#595858" stroke-width="2" stroke-miterlimit="10" x1="182.62" y1="337.958" x2="221.314" y2="346.743"/>
		<g>
			<line x1="221.138" y1="346.703" x2="236.337" y2="350.154"/>
			<g>
				
					<line fill="none" stroke="#595858" stroke-width="2" stroke-miterlimit="10" stroke-dasharray="5.6693,2.8346,1.4173,2.8346" x1="221.138" y1="346.703" x2="235.223" y2="349.901"/>
				<g>
					<polygon fill="#595858" points="232.905,351.114 234.934,349.836 233.656,347.807 235.059,348.126 236.337,350.154 
						234.309,351.432 					"/>
				</g>
			</g>
		</g>
		<g>
			<path fill="#595858" d="M182.643,338.313c-1.385-2.701-2.754-5.338-4.088-7.993c-0.424-0.843-0.879-1.702-1.105-2.608
				c-0.726-2.92,1.339-5.987,4.252-6.444c3.162-0.497,5.986,1.646,6.284,4.753c0.098,1.023-0.043,2.003-0.505,2.913
				c-1.561,3.074-3.142,6.138-4.716,9.205C182.745,338.179,182.714,338.213,182.643,338.313z M182.297,326.856
				c0.135,0.653,0.12,1.166-0.534,1.442c-0.11,0.046-0.138,0.29-0.247,0.542c0.469-0.172,0.805-0.391,1.14-0.39
				c0.344,0.001,0.688,0.218,1.032,0.34c0.03-0.026,0.06-0.052,0.09-0.079c-0.079-0.149-0.124-0.383-0.243-0.432
				c-0.68-0.277-0.61-0.809-0.517-1.423c0.736,0.277,1.45,0.546,2.164,0.815c0.123-0.354,0.019-0.583-0.272-0.781
				c-0.352-0.239-0.652-0.56-1.012-0.782c-0.705-0.434-1.092-0.981-0.937-1.862c0.04-0.225-0.131-0.487-0.235-0.829
				c-0.515,0.54-0.365,1.057-0.37,1.531c-0.003,0.297-0.074,0.497-0.321,0.678c-0.56,0.411-1.084,0.873-1.646,1.283
				c-0.285,0.208-0.361,0.43-0.241,0.762C180.871,327.396,181.571,327.131,182.297,326.856z"/>
		</g>
	</g>
	<g id="path-2-2_1_">
		<ellipse fill-rule="evenodd" fill="#A50F15" cx="220.678" cy="346.775" rx="3.771" ry="3.793"/>
		
			<ellipse fill-rule="evenodd" fill="none" stroke="#F9F9F9" stroke-miterlimit="10" cx="220.678" cy="346.775" rx="1.891" ry="1.902"/>
		<g id="arrow-mobile_1_">
			<path fill="none" stroke="#F9F9F9" stroke-miterlimit="10" d="M217.946,348.198c-47.166,14.973-70.376,50.315-80.173,99.186"/>
			<g>
				<polygon fill="#F9F9F9" points="215.52,347.28 217.678,348.327 216.629,350.484 217.99,350.013 219.037,347.856 216.88,346.809 
									"/>
			</g>
		</g>
	</g>
</g>
<style>
#g-map-update-Artboard_2-interactive-img rect, #g-map-update-Artboard_2-interactive-img circle, #g-map-update-Artboard_2-interactive-img path, #g-map-update-Artboard_2-interactive-img line, #g-map-update-Artboard_2-interactive-img polyline, #g-map-update-Artboard_2-interactive-img polygon { vector-effect: non-scaling-stroke; }
</style>
</svg>

