<?xml version="1.0" encoding="utf-8"?>
<!-- Generator: Adobe Illustrator 25.0.0, SVG Export Plug-In . SVG Version: 6.00 Build 0)  -->
<svg version="1.2" baseProfile="tiny" id="g-map-update-Artboard_1-interactive-img" xmlns="http://www.w3.org/2000/svg" xmlns:xlink="http://www.w3.org/1999/xlink"
	 x="0px" y="0px" viewBox="0 0 963.658 601.617" overflow="visible" xml:space="preserve">
<g>
	<g id="dot-yichun_1_">
		<circle fill-rule="evenodd" fill="#CB181D" cx="725.943" cy="138.954" r="7.048"/>
		
			<ellipse transform="matrix(0.9239 -0.3827 0.3827 0.9239 -85.5674 -139.2267)" fill-rule="evenodd" fill="#CB181D" cx="-392.754" cy="145.475" rx="3.116" ry="3.116"/>
	</g>
	<g id="dot-baotou_1_">
		<circle fill-rule="evenodd" fill="#CB181D" cx="513.442" cy="248.746" r="7.048"/>
		
			<ellipse transform="matrix(0.7071 -0.7071 0.7071 0.7071 -286.505 -292.2914)" fill-rule="evenodd" fill="#CB181D" cx="-496.079" cy="199.696" rx="3.116" ry="3.116"/>
	</g>
	<g id="path-1-1_1_">
		<g>
			<path fill="#020202" d="M556.419,479.805c-2.08-4.019-4.068-7.86-6.055-11.701c-0.751-1.451-1.523-2.892-2.244-4.358
				c-3.165-6.426,1.58-13.734,8.736-13.472c6.338,0.233,10.756,6.976,8.089,12.775C562.354,468.681,559.336,474.115,556.419,479.805
				z M552.041,461.426c1.234-0.461,2.468-0.923,3.766-1.408c0.106,1.039,0.301,1.971-0.899,2.448
				c-0.211,0.084-0.283,0.519-0.42,0.792c0.053,0.06,0.106,0.121,0.159,0.181c1.176-0.813,2.363-0.823,3.638-0.122
				c-0.106-0.418-0.246-0.755-0.497-0.941c-0.954-0.707-1.075-1.036-0.679-2.324c1.226,0.459,2.451,0.918,3.675,1.377
				c0.08-0.076,0.159-0.153,0.239-0.229c-0.236-0.363-0.411-0.793-0.72-1.076c-0.621-0.57-1.27-1.137-1.99-1.564
				c-1.113-0.66-1.556-1.53-1.386-2.819c0.061-0.46-0.204-0.963-0.32-1.446c-0.109,0.004-0.218,0.008-0.327,0.012
				c-0.13,0.28-0.333,0.55-0.372,0.843c-0.069,0.51-0.071,1.036-0.039,1.551c0.033,0.535-0.112,0.904-0.574,1.234
				c-0.953,0.68-1.833,1.463-2.783,2.148C552.022,460.435,551.825,460.814,552.041,461.426z"/>
		</g>
		
			<line fill="#595858" stroke="#595858" stroke-width="2" stroke-miterlimit="10" x1="436.357" y1="452.293" x2="523.361" y2="471.891"/>
		<g>
			<line fill="#595959" x1="522.966" y1="471.802" x2="557.141" y2="479.499"/>
			<g>
				
					<line fill="none" stroke="#595959" stroke-width="2" stroke-miterlimit="10" stroke-dasharray="5.6693,2.8346,1.4173,2.8346" x1="522.966" y1="471.802" x2="556.083" y2="479.261"/>
				<g>
					<polygon fill="#595959" points="551.952,482.523 551.448,481.659 555.709,479.178 552.923,475.109 553.749,474.544 
						557.141,479.5 					"/>
				</g>
			</g>
		</g>
		<g>
			<path fill="#595858" d="M437.223,453.086c-2.622-5.074-5.214-10.027-7.739-15.014c-0.802-1.583-1.665-3.196-2.092-4.898
				c-1.374-5.485,2.535-11.245,8.05-12.104c5.987-0.933,11.333,3.091,11.898,8.928c0.186,1.922-0.082,3.762-0.957,5.471
				c-2.956,5.774-5.949,11.529-8.93,17.291C437.416,452.833,437.358,452.897,437.223,453.086z M436.567,431.566
				c0.256,1.227,0.227,2.189-1.012,2.708c-0.208,0.087-0.261,0.545-0.467,1.017c0.889-0.322,1.525-0.735,2.159-0.733
				c0.652,0.002,1.303,0.409,1.955,0.638c0.057-0.049,0.114-0.099,0.171-0.148c-0.15-0.279-0.234-0.72-0.46-0.812
				c-1.287-0.521-1.154-1.52-0.979-2.674c1.394,0.521,2.745,1.026,4.097,1.531c0.233-0.665,0.036-1.095-0.515-1.466
				c-0.667-0.449-1.234-1.051-1.917-1.468c-1.335-0.815-2.068-1.843-1.775-3.498c0.075-0.422-0.248-0.915-0.444-1.558
				c-0.976,1.014-0.691,1.986-0.701,2.875c-0.006,0.558-0.14,0.933-0.607,1.274c-1.061,0.773-2.053,1.639-3.116,2.409
				c-0.539,0.391-0.684,0.807-0.457,1.432C433.867,432.581,435.194,432.082,436.567,431.566z"/>
		</g>
	</g>
	<g id="path-1-2_1_">
		
			<ellipse transform="matrix(0.9239 -0.3827 0.3827 0.9239 -140.2329 236.0999)" fill-rule="evenodd" fill="#A50F15" cx="523.361" cy="470.55" rx="7.048" ry="7.048"/>
		<circle fill-rule="evenodd" fill="none" stroke="#F9F9F9" stroke-miterlimit="10" cx="523.361" cy="470.55" r="3.535"/>
		<g>
			<path fill="none" stroke="#F9F9F9" stroke-miterlimit="10" d="M523.975,466.12c46.374-67.263,108.549-84.248,184.724-56.69"/>
			<g>
				<polygon fill="#F9F9F9" points="529.239,465.783 529.035,464.803 524.209,465.816 523.552,460.929 522.56,461.063 
					523.362,467.015 				"/>
			</g>
		</g>
	</g>
	<g id="path-3_2_">
		<path fill="none" stroke="#FCFCFC" stroke-miterlimit="10" d="M439.216,150.524c24.722,9.179,66.814,84.921,72.484,95.301"/>
		<g>
			<polygon fill="#FCFCFC" points="506.511,244.899 506.823,243.948 511.506,245.489 512.701,240.704 513.672,240.948 
				512.216,246.774 			"/>
		</g>
	</g>
</g>
<style>
#g-map-update-Artboard_1-interactive-img rect, #g-map-update-Artboard_1-interactive-img circle, #g-map-update-Artboard_1-interactive-img path, #g-map-update-Artboard_1-interactive-img line, #g-map-update-Artboard_1-interactive-img polyline, #g-map-update-Artboard_1-interactive-img polygon { vector-effect: non-scaling-stroke; }
</style>
</svg>

