<?xml version="1.0" encoding="utf-8"?>
<!-- Generator: Adobe Illustrator 25.0.0, SVG Export Plug-In . SVG Version: 6.00 Build 0)  -->
<svg version="1.2" baseProfile="tiny" id="g-plot-Artboard_1-interactive-img" xmlns="http://www.w3.org/2000/svg" xmlns:xlink="http://www.w3.org/1999/xlink"
	 x="0px" y="0px" viewBox="0 0 473.625 367.053" overflow="visible" xml:space="preserve">
<g>
	<g id="others_1_">
		<circle fill="#803D36" cx="306.235" cy="240.636" r="7.797"/>
		<circle fill="#803D36" cx="306.235" cy="218.901" r="7.797"/>
		<circle fill="#803D36" cx="306.235" cy="197.173" r="7.797"/>
		<circle fill="#803D36" cx="284.064" cy="284.04" r="7.797"/>
		<circle fill="#803D36" cx="283.713" cy="240.636" r="7.797"/>
		<circle fill="#803D36" cx="283.713" cy="262.305" r="7.797"/>
		<circle fill="#803D36" cx="283.713" cy="218.901" r="7.797"/>
		<circle fill="#803D36" cx="283.713" cy="197.173" r="7.797"/>
		<circle fill="#803D36" cx="261.506" cy="284.04" r="7.797"/>
		<circle fill="#803D36" cx="261.19" cy="240.636" r="7.797"/>
		<circle fill="#803D36" cx="261.19" cy="262.305" r="7.797"/>
		<circle fill="#803D36" cx="261.19" cy="218.901" r="7.797"/>
		<circle fill="#803D36" cx="261.19" cy="197.173" r="7.797"/>
		<circle fill="#803D36" cx="238.948" cy="284.04" r="7.797"/>
		<circle fill="#803D36" cx="238.667" cy="240.636" r="7.797"/>
		<circle fill="#803D36" cx="238.667" cy="262.305" r="7.797"/>
		<circle fill="#803D36" cx="238.667" cy="218.901" r="7.797"/>
		<circle fill="#803D36" cx="238.667" cy="197.173" r="7.797"/>
		<circle fill="#803D36" cx="216.391" cy="284.04" r="7.797"/>
		<circle fill="#803D36" cx="216.145" cy="240.636" r="7.797"/>
		<circle fill="#803D36" cx="216.145" cy="262.305" r="7.797"/>
		<circle fill="#803D36" cx="216.145" cy="218.901" r="7.797"/>
		<circle fill="#803D36" cx="216.145" cy="197.173" r="7.797"/>
		<circle fill="#803D36" cx="193.833" cy="284.04" r="7.797"/>
		<circle fill="#803D36" cx="193.622" cy="240.636" r="7.797"/>
		<circle fill="#803D36" cx="193.622" cy="262.305" r="7.797"/>
		<circle fill="#803D36" cx="193.622" cy="218.901" r="7.797"/>
		<circle fill="#803D36" cx="193.622" cy="197.173" r="7.797"/>
		<circle fill="#803D36" cx="171.275" cy="284.04" r="7.797"/>
		<circle fill="#803D36" cx="171.1" cy="240.636" r="7.797"/>
		<circle fill="#803D36" cx="171.1" cy="262.305" r="7.797"/>
		<circle fill="#803D36" cx="171.1" cy="218.901" r="7.797"/>
		<circle fill="#803D36" cx="171.1" cy="197.173" r="7.797"/>
		<circle fill="#803D36" cx="148.718" cy="284.04" r="7.797"/>
		<circle fill="#803D36" cx="148.577" cy="240.636" r="7.797"/>
		<circle fill="#803D36" cx="148.577" cy="262.305" r="7.797"/>
		<circle fill="#803D36" cx="148.577" cy="218.901" r="7.797"/>
		<circle fill="#803D36" cx="148.577" cy="197.173" r="7.797"/>
		<circle fill="#803D36" cx="126.16" cy="284.04" r="7.797"/>
		<circle fill="#803D36" cx="126.055" cy="240.636" r="7.797"/>
		<circle fill="#803D36" cx="126.055" cy="262.305" r="7.797"/>
		<circle fill="#803D36" cx="126.055" cy="218.901" r="7.797"/>
		<circle fill="#803D36" cx="126.055" cy="197.173" r="7.797"/>
		<circle fill="#803D36" cx="103.602" cy="284.04" r="7.797"/>
		<circle fill="#803D36" cx="103.532" cy="240.636" r="7.797"/>
		<circle fill="#803D36" cx="103.532" cy="262.305" r="7.797"/>
		<circle fill="#803D36" cx="103.532" cy="218.901" r="7.797"/>
		<circle fill="#803D36" cx="103.532" cy="197.173" r="7.797"/>
		<circle fill="#803D36" cx="81.045" cy="284.04" r="7.797"/>
		<circle fill="#803D36" cx="81.01" cy="240.636" r="7.797"/>
		<circle fill="#803D36" cx="81.01" cy="262.305" r="7.797"/>
		<circle fill="#803D36" cx="81.01" cy="218.901" r="7.797"/>
		<circle fill="#803D36" cx="81.01" cy="197.173" r="7.797"/>
		<circle fill="#803D36" cx="58.487" cy="284.04" r="7.797"/>
		<circle fill="#803D36" cx="58.487" cy="240.636" r="7.797"/>
		<circle fill="#803D36" cx="58.487" cy="262.305" r="7.797"/>
		<circle fill="#803D36" cx="58.487" cy="218.901" r="7.797"/>
		<circle fill="#803D36" cx="58.487" cy="197.173" r="7.797"/>
		<circle fill="#956565" cx="351.736" cy="86.159" r="7.797"/>
		<circle fill="#956565" cx="351.736" cy="129.644" r="7.797"/>
		<circle fill="#956565" cx="351.736" cy="107.894" r="7.797"/>
		<circle fill="#956565" cx="351.28" cy="151.35" r="7.797"/>
		<circle fill="#956565" cx="351.28" cy="173.085" r="7.797"/>
		<circle fill="#956565" cx="374.294" cy="86.159" r="7.797"/>
		<circle fill="#956565" cx="374.294" cy="129.644" r="7.797"/>
		<circle fill="#956565" cx="374.294" cy="107.894" r="7.797"/>
		<circle fill="#956565" cx="373.803" cy="151.35" r="7.797"/>
		<circle fill="#956565" cx="373.803" cy="173.085" r="7.797"/>
		<circle fill="#956565" cx="396.852" cy="86.159" r="7.797"/>
		<circle fill="#956565" cx="396.852" cy="129.644" r="7.797"/>
		<circle fill="#956565" cx="396.852" cy="107.894" r="7.797"/>
		<circle fill="#956565" cx="328.758" cy="151.35" r="7.797"/>
		<circle fill="#956565" cx="328.758" cy="173.085" r="7.797"/>
		<circle fill="#956565" cx="329.179" cy="129.644" r="7.797"/>
		<circle fill="#B27272" cx="328.758" cy="240.636" r="7.797"/>
		<circle fill="#B27272" cx="328.758" cy="218.901" r="7.797"/>
		<circle fill="#B27272" cx="328.758" cy="262.305" r="7.797"/>
		<circle fill="#B27272" cx="329.179" cy="284.04" r="7.797"/>
		<circle fill="#B27272" cx="351.28" cy="197.173" r="7.797"/>
		<circle fill="#B27272" cx="351.28" cy="240.636" r="7.797"/>
		<circle fill="#B27272" cx="351.28" cy="218.901" r="7.797"/>
		<circle fill="#B27272" cx="351.28" cy="262.305" r="7.797"/>
		<circle fill="#B27272" cx="351.736" cy="284.04" r="7.797"/>
		<circle fill="#B27272" cx="373.803" cy="197.173" r="7.797"/>
		<circle fill="#B27272" cx="373.803" cy="240.636" r="7.797"/>
		<circle fill="#B27272" cx="373.803" cy="218.901" r="7.797"/>
		<circle fill="#B27272" cx="373.803" cy="262.305" r="7.797"/>
		<circle fill="#B27272" cx="374.294" cy="284.04" r="7.797"/>
		<circle fill="#B27272" cx="306.235" cy="262.305" r="7.797"/>
		<circle fill="#B27272" cx="328.758" cy="197.173" r="7.797"/>
		<circle fill="#B27272" cx="306.621" cy="284.04" r="7.797"/>
	</g>
	<g id="passenger_1_">
		<circle fill="#CC1817" cx="58.487" cy="86.159" r="7.797"/>
		<circle fill="#CC1817" cx="58.487" cy="129.644" r="7.797"/>
		<circle fill="#CC1817" cx="58.487" cy="107.894" r="7.797"/>
		<circle fill="#CC1817" cx="58.487" cy="151.35" r="7.797"/>
		<circle fill="#CC1817" cx="58.487" cy="173.085" r="7.797"/>
		<circle fill="#CC1817" cx="81.045" cy="86.159" r="7.797"/>
		<circle fill="#CC1817" cx="81.045" cy="129.644" r="7.797"/>
		<circle fill="#CC1817" cx="81.045" cy="107.894" r="7.797"/>
		<circle fill="#CC1817" cx="81.01" cy="151.35" r="7.797"/>
		<circle fill="#CC1817" cx="81.01" cy="173.085" r="7.797"/>
		<circle fill="#CC1817" cx="103.602" cy="86.159" r="7.797"/>
		<circle fill="#CC1817" cx="103.602" cy="129.644" r="7.797"/>
		<circle fill="#CC1817" cx="103.602" cy="107.894" r="7.797"/>
		<circle fill="#CC1817" cx="103.532" cy="151.35" r="7.797"/>
		<circle fill="#CC1817" cx="103.532" cy="173.085" r="7.797"/>
		<circle fill="#CC1817" cx="126.16" cy="86.159" r="7.797"/>
		<circle fill="#CC1817" cx="126.16" cy="129.644" r="7.797"/>
		<circle fill="#CC1817" cx="126.16" cy="107.894" r="7.797"/>
		<circle fill="#CC1817" cx="126.055" cy="151.35" r="7.797"/>
		<circle fill="#CC1817" cx="126.055" cy="173.085" r="7.797"/>
		<circle fill="#CC1817" cx="148.718" cy="86.159" r="7.797"/>
		<circle fill="#CC1817" cx="148.718" cy="129.644" r="7.797"/>
		<circle fill="#CC1817" cx="148.718" cy="107.894" r="7.797"/>
		<circle fill="#CC1817" cx="148.577" cy="151.35" r="7.797"/>
		<circle fill="#CC1817" cx="148.577" cy="173.085" r="7.797"/>
		<circle fill="#CC1817" cx="171.275" cy="86.159" r="7.797"/>
		<circle fill="#CC1817" cx="171.275" cy="129.644" r="7.797"/>
		<circle fill="#CC1817" cx="171.275" cy="107.894" r="7.797"/>
		<circle fill="#CC1817" cx="171.1" cy="151.35" r="7.797"/>
		<circle fill="#CC1817" cx="171.1" cy="173.085" r="7.797"/>
		<circle fill="#CC1817" cx="193.833" cy="86.159" r="7.797"/>
		<circle fill="#CC1817" cx="193.833" cy="129.644" r="7.797"/>
		<circle fill="#CC1817" cx="193.833" cy="107.894" r="7.797"/>
		<circle fill="#CC1817" cx="193.622" cy="151.35" r="7.797"/>
		<circle fill="#CC1817" cx="193.622" cy="173.085" r="7.797"/>
		<circle fill="#CC1817" cx="216.391" cy="86.159" r="7.797"/>
		<circle fill="#CC1817" cx="216.391" cy="129.644" r="7.797"/>
		<circle fill="#CC1817" cx="216.391" cy="107.894" r="7.797"/>
		<circle fill="#CC1817" cx="216.145" cy="151.35" r="7.797"/>
		<circle fill="#CC1817" cx="216.145" cy="173.085" r="7.797"/>
		<circle fill="#CC1817" cx="238.948" cy="86.159" r="7.797"/>
		<circle fill="#CC1817" cx="238.948" cy="129.644" r="7.797"/>
		<circle fill="#CC1817" cx="238.948" cy="107.894" r="7.797"/>
		<circle fill="#CC1817" cx="238.667" cy="151.35" r="7.797"/>
		<circle fill="#CC1817" cx="238.667" cy="173.085" r="7.797"/>
		<circle fill="#CC1817" cx="261.506" cy="86.159" r="7.797"/>
		<circle fill="#CC1817" cx="261.506" cy="129.644" r="7.797"/>
		<circle fill="#CC1817" cx="261.506" cy="107.894" r="7.797"/>
		<circle fill="#CC1817" cx="261.19" cy="151.35" r="7.797"/>
		<circle fill="#CC1817" cx="261.19" cy="173.085" r="7.797"/>
		<circle fill="#CC1817" cx="284.064" cy="86.159" r="7.797"/>
		<circle fill="#CC1817" cx="284.064" cy="129.644" r="7.797"/>
		<circle fill="#CC1817" cx="284.064" cy="107.894" r="7.797"/>
		<circle fill="#CC1817" cx="283.713" cy="151.35" r="7.797"/>
		<circle fill="#CC1817" cx="283.713" cy="173.085" r="7.797"/>
		<circle fill="#CC1817" cx="306.621" cy="86.159" r="7.797"/>
		<circle fill="#CC1817" cx="306.621" cy="129.644" r="7.797"/>
		<circle fill="#CC1817" cx="306.621" cy="107.894" r="7.797"/>
		<circle fill="#CC1817" cx="306.235" cy="151.35" r="7.797"/>
		<circle fill="#CC1817" cx="306.235" cy="173.085" r="7.797"/>
		<circle fill="#CC1817" cx="329.179" cy="86.159" r="7.797"/>
		<circle fill="#CC1817" cx="329.179" cy="107.894" r="7.797"/>
	</g>
</g>
<style>
#g-plot-Artboard_1-interactive-img rect, #g-plot-Artboard_1-interactive-img circle, #g-plot-Artboard_1-interactive-img path, #g-plot-Artboard_1-interactive-img line, #g-plot-Artboard_1-interactive-img polyline, #g-plot-Artboard_1-interactive-img polygon { vector-effect: non-scaling-stroke; }
</style>
</svg>

