<?xml version="1.0" encoding="utf-8"?>
<!-- Generator: Adobe Illustrator 27.0.0, SVG Export Plug-In . SVG Version: 6.00 Build 0)  -->
<svg version="1.2" baseProfile="tiny" id="g-vermont-map-NEW_2-Artboard_2-interactions-img" xmlns="http://www.w3.org/2000/svg" xmlns:xlink="http://www.w3.org/1999/xlink"
	 x="0px" y="0px" viewBox="0 0 724 924" overflow="visible" xml:space="preserve">
<g>
	<g id="county-names_00000029015783988715665470000002041931806672658575_">
		<text transform="matrix(0.9453 0 0 1 454.4482 -661.6172)" font-family="'Helvetica-Bold'" font-size="13.2188px">Grandlsle County</text>
		<text transform="matrix(0.9453 0 0 1 553.3652 -684.752)" font-family="'Helvetica-Bold'" font-size="13.2188px">Franklin County</text>
		<text transform="matrix(0.9453 0 0 1 691.3975 -670.5908)" font-family="'Helvetica-Bold'" font-size="13.2188px">Orleans County</text>
		<text transform="matrix(0.9453 0 0 1 800.7461 -635.9399)" font-family="'Helvetica-Bold'" font-size="13.2188px">Essex County</text>
		<text transform="matrix(0.9453 0 0 1 498.7568 -564.5898)" font-family="'Helvetica-Bold'" font-size="13.2188px">Chittenden County</text>
		<text transform="matrix(0.9453 0 0 1 592.502 -602.9951)" font-family="'Helvetica-Bold'" font-size="13.2188px">Lamolle County</text>
		<text transform="matrix(0.9453 0 0 1 695.7061 -571.186)" font-family="'Helvetica-Bold'" font-size="13.2188px">Caledonia County</text>
		<text transform="matrix(0.9453 0 0 1 599.9746 -505.7451)" font-family="'Helvetica-Bold'" font-size="13.2188px">W</text>
		<text transform="matrix(0.9453 0 0 1 611.3105 -505.7451)" font-family="'Helvetica-Bold'" font-size="13.2188px">a</text>
		<text transform="matrix(0.9453 0 0 1 618.2598 -505.7451)" font-family="'Helvetica-Bold'" font-size="13.2188px">s</text>
		<text transform="matrix(0.9453 0 0 1 625.209 -505.7451)" font-family="'Helvetica-Bold'" font-size="13.2188px">h</text>
		<text transform="matrix(0.9453 0 0 1 632.8418 -505.7451)" font-family="'Helvetica-Bold'" font-size="13.2188px">i</text>
		<text transform="matrix(0.9453 0 0 1 636.313 -505.7451)" font-family="'Helvetica-Bold'" font-size="13.2188px">n</text>
		<text transform="matrix(0.9453 0 0 1 643.9453 -505.7451)" font-family="'Helvetica-Bold'" font-size="13.2188px">g</text>
		<text transform="matrix(0.9453 0 0 1 651.5781 -505.7451)" font-family="'Helvetica-Bold'" font-size="13.2188px">t</text>
		<text transform="matrix(0.9453 0 0 1 655.7393 -505.7451)" font-family="'Helvetica-Bold'" font-size="13.2188px">o</text>
		<text transform="matrix(0.9453 0 0 1 663.3721 -505.7451)" font-family="'Helvetica-Bold'" font-size="13.2188px">n</text>
		<text transform="matrix(0.9453 0 0 1 671.0049 -505.7451)" font-family="'Helvetica-Bold'" font-size="13.2188px"> </text>
		<text transform="matrix(0.9453 0 0 1 674.4756 -505.7451)" font-family="'Helvetica-Bold'" font-size="13.2188px">C</text>
		<text transform="matrix(0.9453 0 0 1 683.5 -505.7451)" font-family="'Helvetica-Bold'" font-size="13.2188px">o</text>
		<text transform="matrix(0.9453 0 0 1 691.1318 -505.7451)" font-family="'Helvetica-Bold'" font-size="13.2188px">u</text>
		<text transform="matrix(0.9453 0 0 1 698.7646 -505.7451)" font-family="'Helvetica-Bold'" font-size="13.2188px">n</text>
		<text transform="matrix(0.9453 0 0 1 706.3975 -505.7451)" font-family="'Helvetica-Bold'" font-size="13.2188px">t</text>
		<text transform="matrix(0.9453 0 0 1 710.5586 -505.7451)" font-family="'Helvetica-Bold'" font-size="13.2188px">y</text>
		<text transform="matrix(0.9453 0 0 1 481.6436 -442.3945)" font-family="'Helvetica-Bold'" font-size="13.2188px">Addison County</text>
		<text transform="matrix(0.9453 0 0 1 656.6494 -424.8125)" font-family="'Helvetica-Bold'" font-size="13.2188px">Orange County</text>
		<text transform="matrix(0.9453 0 0 1 516.293 -295.0117)" font-family="'Helvetica-Bold'" font-size="13.2188px">Rutland County</text>
		<text transform="matrix(0.9453 0 0 1 623.5449 -332.4658)" font-family="'Helvetica-Bold'" font-size="13.2188px">W</text>
		<text transform="matrix(0.9453 0 0 1 635.2285 -332.4658)" font-family="'Helvetica-Bold'" font-size="13.2188px">i</text>
		<text transform="matrix(0.9453 0 0 1 638.7002 -332.4658)" font-family="'Helvetica-Bold'" font-size="13.2188px">n</text>
		<text transform="matrix(0.9453 0 0 1 646.333 -332.4658)" font-family="'Helvetica-Bold'" font-size="13.2188px">d</text>
		<text transform="matrix(0.9453 0 0 1 653.9658 -332.4658)" font-family="'Helvetica-Bold'" font-size="13.2188px">s</text>
		<text transform="matrix(0.9453 0 0 1 660.915 -332.4658)" font-family="'Helvetica-Bold'" font-size="13.2188px">o</text>
		<text transform="matrix(0.9453 0 0 1 668.5469 -332.4658)" font-family="'Helvetica-Bold'" font-size="13.2188px">r</text>
		<text transform="matrix(0.9453 0 0 1 673.4102 -332.4658)" font-family="'Helvetica-Bold'" font-size="13.2188px"> </text>
		<text transform="matrix(0.9453 0 0 1 676.8818 -332.4658)" font-family="'Helvetica-Bold'" font-size="13.2188px">C</text>
		<text transform="matrix(0.9453 0 0 1 685.9053 -332.4658)" font-family="'Helvetica-Bold'" font-size="13.2188px">o</text>
		<text transform="matrix(0.9453 0 0 1 693.5381 -332.4658)" font-family="'Helvetica-Bold'" font-size="13.2188px">u</text>
		<text transform="matrix(0.9453 0 0 1 701.1699 -332.4658)" font-family="'Helvetica-Bold'" font-size="13.2188px">n</text>
		<text transform="matrix(0.9453 0 0 1 708.8027 -332.4658)" font-family="'Helvetica-Bold'" font-size="13.2188px">t</text>
		<text transform="matrix(0.9453 0 0 1 712.9639 -332.4658)" font-family="'Helvetica-Bold'" font-size="13.2188px">y</text>
		<text transform="matrix(0.9453 0 0 1 488.4819 -161.3936)" font-family="'Helvetica-Bold'" font-size="13.2188px">Bennington County</text>
		<text transform="matrix(0.9152 0 0 1 571.9026 -116.4888)" font-family="'Helvetica-Bold'" font-size="13.8366px">W</text>
		<text transform="matrix(0.9152 0 0 1 583.7434 -116.4888)" font-family="'Helvetica-Bold'" font-size="13.8366px">i</text>
		<text transform="matrix(0.9152 0 0 1 587.2615 -116.4888)" font-family="'Helvetica-Bold'" font-size="13.8366px">n</text>
		<text transform="matrix(0.9152 0 0 1 594.9968 -116.4888)" font-family="'Helvetica-Bold'" font-size="13.8366px">d</text>
		<text transform="matrix(0.9152 0 0 1 602.7317 -116.4888)" font-family="'Helvetica-Bold'" font-size="13.8366px">h</text>
		<text transform="matrix(0.9152 0 0 1 610.467 -116.4888)" font-family="'Helvetica-Bold'" font-size="13.8366px">a</text>
		<text transform="matrix(0.9152 0 0 1 617.5095 -116.4888)" font-family="'Helvetica-Bold'" font-size="13.8366px">m</text>
		<text transform="matrix(0.9152 0 0 1 628.7693 -116.4888)" font-family="'Helvetica-Bold'" font-size="13.8366px"> </text>
		<text transform="matrix(0.9152 0 0 1 632.2874 -116.4888)" font-family="'Helvetica-Bold'" font-size="13.8366px">C</text>
		<text transform="matrix(0.9152 0 0 1 641.4324 -116.4888)" font-family="'Helvetica-Bold'" font-size="13.8366px">o</text>
		<text transform="matrix(0.9152 0 0 1 649.1677 -116.4888)" font-family="'Helvetica-Bold'" font-size="13.8366px">u</text>
		<text transform="matrix(0.9152 0 0 1 656.9026 -116.4888)" font-family="'Helvetica-Bold'" font-size="13.8366px">n</text>
		<text transform="matrix(0.9152 0 0 1 664.6379 -116.4888)" font-family="'Helvetica-Bold'" font-size="13.8366px">t</text>
		<text transform="matrix(0.9152 0 0 1 668.8547 -116.4888)" font-family="'Helvetica-Bold'" font-size="13.8366px">y</text>
	</g>
	<g id="homeless-number_00000147201364647847305990000016143806188197358464_">
		<text transform="matrix(0.9453 0 0 1 492.0308 -620.0591)" font-family="'Helvetica'" font-size="13.2188px">1</text>
		<text transform="matrix(0.9453 0 0 1 584.5469 -648.8223)" font-family="'Helvetica'" font-size="13.2188px">162</text>
		<text transform="matrix(0.9453 0 0 1 545.3682 -260.1426)" font-family="'Helvetica'" font-size="13.2188px">374</text>
		<text transform="matrix(0.9453 0 0 1 657.958 -297.1748)" font-family="'Helvetica'" font-size="13.2188px">139</text>
		<text transform="matrix(0.9453 0 0 1 687.1133 -390.8145)" font-family="'Helvetica'" font-size="13.2188px">38</text>
		<text transform="matrix(0.9453 0 0 1 514.2646 -408.4395)" font-family="'Helvetica'" font-size="13.2188px">97</text>
		<text transform="matrix(0.9453 0 0 1 639.2148 -469.3174)" font-family="'Helvetica'" font-size="13.2188px">389</text>
		<text transform="matrix(0.9453 0 0 1 535.1201 -523.7778)" font-family="'Helvetica'" font-size="13.2188px">668</text>
		<text transform="matrix(0.9453 0 0 1 627.793 -564.5356)" font-family="'Helvetica'" font-size="13.2188px">57</text>
		<text transform="matrix(0.9453 0 0 1 745.46 -534.79)" font-family="'Helvetica'" font-size="13.2188px">139</text>
		<text transform="matrix(0.9453 0 0 1 836.0508 -599.7842)" font-family="'Helvetica'" font-size="13.2188px">1</text>
		<text transform="matrix(0.9453 0 0 1 723.7363 -632.9321)" font-family="'Helvetica'" font-size="13.2188px">33</text>
		<text transform="matrix(0.953 0 0 1 613.1165 -82.4868)" font-family="'Helvetica'" font-size="13.22px">404</text>
		<text transform="matrix(0.9397 0 0 1 527.9624 -124.342)" font-family="'Helvetica'" font-size="13.22px">278</text>
	</g>
	<g id="income-number_00000085962949284733100490000001405264419158115004_">
		<text transform="matrix(0.9453 0 0 1 525.8291 -543.6592)" font-family="'Helvetica'" font-size="13.2188px">$76,316</text>
		<text transform="matrix(0.9453 0 0 1 475.2681 -641.79)" font-family="'Helvetica'" font-size="13.2188px">$81,667</text>
		<text transform="matrix(0.9453 0 0 1 571.7773 -666.9609)" font-family="'Helvetica'" font-size="13.2188px">$65,314</text>
		<text transform="matrix(0.9453 0 0 1 707.0176 -650.7603)" font-family="'Helvetica'" font-size="13.2188px">$54,390</text>
		<text transform="matrix(0.9453 0 0 1 816.3633 -617.2134)" font-family="'Helvetica'" font-size="13.2188px">$47,035</text>
		<text transform="matrix(0.9453 0 0 1 613.7852 -583.2305)" font-family="'Helvetica'" font-size="13.2188px">$64,179</text>
		<text transform="matrix(0.9453 0 0 1 733.1885 -552.459)" font-family="'Helvetica'" font-size="13.2188px">$52,481</text>
		<text transform="matrix(0.9453 0 0 1 627.0459 -488.1177)" font-family="'Helvetica'" font-size="13.2188px">$64,862</text>
		<text transform="matrix(0.9453 0 0 1 501.4282 -424.7705)" font-family="'Helvetica'" font-size="13.2188px">$70,262</text>
		<text transform="matrix(0.9453 0 0 1 671.2256 -404.9893)" font-family="'Helvetica'" font-size="13.2188px">$62,737</text>
		<text transform="matrix(0.9453 0 0 1 533.9932 -277.3848)" font-family="'Helvetica'" font-size="13.2188px">$57,176</text>
		<text transform="matrix(0.9453 0 0 1 646.4531 -313.7363)" font-family="'Helvetica'" font-size="13.2188px">$61,503</text>
		<text transform="matrix(0.9453 0 0 1 517.6377 -141.5664)" font-family="'Helvetica'" font-size="13.2188px">$58,200</text>
		<text transform="matrix(0.953 0 0 1 599.7844 -98.4458)" font-family="'Helvetica'" font-size="13.22px">$54,188</text>
	</g>
	<g id="homeless-legends_00000000187553768093729430000012427240675540599445_">
		<text transform="matrix(0.7583 0 0 1 775.1738 -158.7871)" font-family="'Helvetica-Bold'" font-size="15.609px">Number of Homeless</text>
		<rect x="775.829" y="-149.617" fill="none" stroke="#999999" stroke-miterlimit="10" width="197.843" height="48.469"/>
		<rect x="501.716" y="829.69" fill="none" stroke="#999999" stroke-miterlimit="10" width="197.926" height="50.294"/>
	</g>
	<rect x="24.633" y="833.089" fill="none" stroke="#999999" stroke-miterlimit="10" width="197.926" height="50.294"/>
	<g id="arrow-2_00000027579396829357862650000005516085855810716082_">
		<path fill="none" stroke="#C1272D" stroke-width="2" stroke-miterlimit="10" d="M311.818,244.659
			c-3.106,12.403-91.862-11.874-122.747-29.558"/>
		<g>
			<path fill="#C1272D" d="M191.971,216.808l-1.523,7.522l-0.265-0.043l-4.968-10.377c-2.179-3.131-4.358-6.261-6.537-9.393
				c3.292,1.927,6.583,3.855,9.875,5.782l10.734,4.141l0.088,0.234L191.971,216.808z"/>
		</g>
	</g>
	
		<ellipse id="circle-2_00000052065811963083921110000008876776646632973185_" fill="none" stroke="#C1272D" stroke-width="2" stroke-miterlimit="10" cx="365.538" cy="242.911" rx="42.19" ry="9.716"/>
	
		<ellipse id="circle-1_00000093882112683111789790000007282470702332315564_" fill="none" stroke="#C1272D" stroke-width="2" stroke-miterlimit="10" cx="365.538" cy="263.485" rx="42.19" ry="9.716"/>
	<g id="arrow-1_00000039133404511086493730000001302375087771922604_">
		<path fill="none" stroke="#C1272D" stroke-width="2" stroke-miterlimit="10" d="M192.028,318.36
			c26.54-27.154,119.749-64.24,127.15-44.03"/>
		<g>
			<path fill="#C1272D" d="M194.553,315.601l-4.401-7.195l-0.258,0.144l-1.228,12.583c-1.073,4.052-2.146,8.104-3.218,12.156
				c2.674-3.228,5.348-6.455,8.023-9.683l9.527-8.311l0.003-0.275L194.553,315.601z"/>
		</g>
	</g>
</g>
<style>
#g-vermont-map-NEW_2-Artboard_2-interactions-img rect, #g-vermont-map-NEW_2-Artboard_2-interactions-img circle, #g-vermont-map-NEW_2-Artboard_2-interactions-img path, #g-vermont-map-NEW_2-Artboard_2-interactions-img line, #g-vermont-map-NEW_2-Artboard_2-interactions-img polyline, #g-vermont-map-NEW_2-Artboard_2-interactions-img polygon { vector-effect: non-scaling-stroke; }
</style>
</svg>

