<?xml version="1.0" encoding="utf-8"?>
<!-- Generator: Adobe Illustrator 27.0.0, SVG Export Plug-In . SVG Version: 6.00 Build 0)  -->
<svg version="1.2" baseProfile="tiny" id="g-vermont-map-NEW_2-Artboard_1-interactions-img" xmlns="http://www.w3.org/2000/svg" xmlns:xlink="http://www.w3.org/1999/xlink"
	 x="0px" y="0px" viewBox="0 0 1280 720" overflow="visible" xml:space="preserve">
<g>
	<g id="county-names_00000067922745187684357990000007615069971739935912_">
		<text transform="matrix(0.9113 0 0 1 273.1997 866.416)" font-family="'Helvetica-Bold'" font-size="13.7164px">Grandlsle County</text>
		<text transform="matrix(0.9113 0 0 1 372.1587 842.4102)" font-family="'Helvetica-Bold'" font-size="13.7164px">Franklin County</text>
		<text transform="matrix(0.9113 0 0 1 510.2485 857.1045)" font-family="'Helvetica-Bold'" font-size="13.7164px">Orleans County</text>
		<text transform="matrix(0.9113 0 0 1 619.6431 893.0596)" font-family="'Helvetica-Bold'" font-size="13.7164px">Essex County</text>
		<text transform="matrix(0.9113 0 0 1 317.5269 967.0957)" font-family="'Helvetica-Bold'" font-size="13.7164px">Chittenden County</text>
		<text transform="matrix(0.9113 0 0 1 411.311 927.2441)" font-family="'Helvetica-Bold'" font-size="13.7164px">Lamolle County</text>
		<text transform="matrix(0.9113 0 0 1 514.5591 960.251)" font-family="'Helvetica-Bold'" font-size="13.7164px">Caledonia County</text>
		<text transform="matrix(0.9113 0 0 1 418.7876 1028.1553)" font-family="'Helvetica-Bold'" font-size="13.7164px">W</text>
		<text transform="matrix(0.9113 0 0 1 430.1284 1028.1553)" font-family="'Helvetica-Bold'" font-size="13.7164px">a</text>
		<text transform="matrix(0.9113 0 0 1 437.0806 1028.1553)" font-family="'Helvetica-Bold'" font-size="13.7164px">s</text>
		<text transform="matrix(0.9113 0 0 1 444.0327 1028.1553)" font-family="'Helvetica-Bold'" font-size="13.7164px">h</text>
		<text transform="matrix(0.9113 0 0 1 451.6685 1028.1553)" font-family="'Helvetica-Bold'" font-size="13.7164px">i</text>
		<text transform="matrix(0.9113 0 0 1 455.1416 1028.1553)" font-family="'Helvetica-Bold'" font-size="13.7164px">n</text>
		<text transform="matrix(0.9113 0 0 1 462.7773 1028.1553)" font-family="'Helvetica-Bold'" font-size="13.7164px">g</text>
		<text transform="matrix(0.9113 0 0 1 470.4131 1028.1553)" font-family="'Helvetica-Bold'" font-size="13.7164px">t</text>
		<text transform="matrix(0.9113 0 0 1 474.5757 1028.1553)" font-family="'Helvetica-Bold'" font-size="13.7164px">o</text>
		<text transform="matrix(0.9113 0 0 1 482.2114 1028.1553)" font-family="'Helvetica-Bold'" font-size="13.7164px">n</text>
		<text transform="matrix(0.9113 0 0 1 489.8472 1028.1553)" font-family="'Helvetica-Bold'" font-size="13.7164px"> </text>
		<text transform="matrix(0.9113 0 0 1 493.3203 1028.1553)" font-family="'Helvetica-Bold'" font-size="13.7164px">C</text>
		<text transform="matrix(0.9113 0 0 1 502.3477 1028.1553)" font-family="'Helvetica-Bold'" font-size="13.7164px">o</text>
		<text transform="matrix(0.9113 0 0 1 509.9834 1028.1553)" font-family="'Helvetica-Bold'" font-size="13.7164px">u</text>
		<text transform="matrix(0.9113 0 0 1 517.6191 1028.1553)" font-family="'Helvetica-Bold'" font-size="13.7164px">n</text>
		<text transform="matrix(0.9113 0 0 1 525.2549 1028.1553)" font-family="'Helvetica-Bold'" font-size="13.7164px">t</text>
		<text transform="matrix(0.9113 0 0 1 529.418 1028.1553)" font-family="'Helvetica-Bold'" font-size="13.7164px">y</text>
		<text transform="matrix(0.9113 0 0 1 300.4058 1093.8906)" font-family="'Helvetica-Bold'" font-size="13.7164px">Addison County</text>
		<text transform="matrix(0.9113 0 0 1 475.4858 1112.1348)" font-family="'Helvetica-Bold'" font-size="13.7164px">Orange County</text>
		<text transform="matrix(0.9113 0 0 1 335.0708 1246.8223)" font-family="'Helvetica-Bold'" font-size="13.7164px">Rutland County</text>
		<text transform="matrix(0.9113 0 0 1 442.3677 1207.958)" font-family="'Helvetica-Bold'" font-size="13.7164px">W</text>
		<text transform="matrix(0.9113 0 0 1 454.0562 1207.958)" font-family="'Helvetica-Bold'" font-size="13.7164px">i</text>
		<text transform="matrix(0.9113 0 0 1 457.5293 1207.958)" font-family="'Helvetica-Bold'" font-size="13.7164px">n</text>
		<text transform="matrix(0.9113 0 0 1 465.165 1207.958)" font-family="'Helvetica-Bold'" font-size="13.7164px">d</text>
		<text transform="matrix(0.9113 0 0 1 472.8008 1207.958)" font-family="'Helvetica-Bold'" font-size="13.7164px">s</text>
		<text transform="matrix(0.9113 0 0 1 479.7529 1207.958)" font-family="'Helvetica-Bold'" font-size="13.7164px">o</text>
		<text transform="matrix(0.9113 0 0 1 487.3887 1207.958)" font-family="'Helvetica-Bold'" font-size="13.7164px">r</text>
		<text transform="matrix(0.9113 0 0 1 492.2534 1207.958)" font-family="'Helvetica-Bold'" font-size="13.7164px"> </text>
		<text transform="matrix(0.9113 0 0 1 495.7266 1207.958)" font-family="'Helvetica-Bold'" font-size="13.7164px">C</text>
		<text transform="matrix(0.9113 0 0 1 504.7539 1207.958)" font-family="'Helvetica-Bold'" font-size="13.7164px">o</text>
		<text transform="matrix(0.9113 0 0 1 512.3896 1207.958)" font-family="'Helvetica-Bold'" font-size="13.7164px">u</text>
		<text transform="matrix(0.9113 0 0 1 520.0254 1207.958)" font-family="'Helvetica-Bold'" font-size="13.7164px">n</text>
		<text transform="matrix(0.9113 0 0 1 527.6611 1207.958)" font-family="'Helvetica-Bold'" font-size="13.7164px">t</text>
		<text transform="matrix(0.9113 0 0 1 531.8242 1207.958)" font-family="'Helvetica-Bold'" font-size="13.7164px">y</text>
		<text transform="matrix(0.9113 0 0 1 307.2476 1385.4697)" font-family="'Helvetica-Bold'" font-size="13.7164px">Bennington County</text>
		<text transform="matrix(0.9152 0 0 1 391.001 1429.8984)" font-family="'Helvetica-Bold'" font-size="13.8366px">W</text>
		<text transform="matrix(0.9152 0 0 1 402.8418 1429.8984)" font-family="'Helvetica-Bold'" font-size="13.8366px">i</text>
		<text transform="matrix(0.9152 0 0 1 406.3599 1429.8984)" font-family="'Helvetica-Bold'" font-size="13.8366px">n</text>
		<text transform="matrix(0.9152 0 0 1 414.0952 1429.8984)" font-family="'Helvetica-Bold'" font-size="13.8366px">d</text>
		<text transform="matrix(0.9152 0 0 1 421.8301 1429.8984)" font-family="'Helvetica-Bold'" font-size="13.8366px">h</text>
		<text transform="matrix(0.9152 0 0 1 429.5654 1429.8984)" font-family="'Helvetica-Bold'" font-size="13.8366px">a</text>
		<text transform="matrix(0.9152 0 0 1 436.6079 1429.8984)" font-family="'Helvetica-Bold'" font-size="13.8366px">m</text>
		<text transform="matrix(0.9152 0 0 1 447.8677 1429.8984)" font-family="'Helvetica-Bold'" font-size="13.8366px"> </text>
		<text transform="matrix(0.9152 0 0 1 451.3857 1429.8984)" font-family="'Helvetica-Bold'" font-size="13.8366px">C</text>
		<text transform="matrix(0.9152 0 0 1 460.5308 1429.8984)" font-family="'Helvetica-Bold'" font-size="13.8366px">o</text>
		<text transform="matrix(0.9152 0 0 1 468.2661 1429.8984)" font-family="'Helvetica-Bold'" font-size="13.8366px">u</text>
		<text transform="matrix(0.9152 0 0 1 476.001 1429.8984)" font-family="'Helvetica-Bold'" font-size="13.8366px">n</text>
		<text transform="matrix(0.9152 0 0 1 483.7363 1429.8984)" font-family="'Helvetica-Bold'" font-size="13.8366px">t</text>
		<text transform="matrix(0.9152 0 0 1 487.9531 1429.8984)" font-family="'Helvetica-Bold'" font-size="13.8366px">y</text>
	</g>
	<g id="homeless-number_00000051378684326206203420000005103327031512722355_">
		<text transform="matrix(0.9113 0 0 1 310.7974 909.5381)" font-family="'Helvetica'" font-size="13.7164px">1</text>
		<text transform="matrix(0.9113 0 0 1 403.353 879.6924)" font-family="'Helvetica'" font-size="13.7164px">162</text>
		<text transform="matrix(0.9113 0 0 1 364.1577 1283.0039)" font-family="'Helvetica'" font-size="13.7164px">374</text>
		<text transform="matrix(0.9113 0 0 1 476.7944 1244.5771)" font-family="'Helvetica'" font-size="13.7164px">139</text>
		<text transform="matrix(0.9113 0 0 1 509.9624 1150.4121)" font-family="'Helvetica'" font-size="13.7164px">38</text>
		<text transform="matrix(0.9113 0 0 1 333.0405 1129.124)" font-family="'Helvetica'" font-size="13.7164px">97</text>
		<text transform="matrix(0.9113 0 0 1 458.0435 1065.9551)" font-family="'Helvetica'" font-size="13.7164px">389</text>
		<text transform="matrix(0.9113 0 0 1 353.9048 1009.4434)" font-family="'Helvetica'" font-size="13.7164px">668</text>
		<text transform="matrix(0.9113 0 0 1 448.6167 967.1514)" font-family="'Helvetica'" font-size="13.7164px">57</text>
		<text transform="matrix(0.9113 0 0 1 564.3335 998.0176)" font-family="'Helvetica'" font-size="13.7164px">139</text>
		<text transform="matrix(0.9113 0 0 1 654.9629 930.5762)" font-family="'Helvetica'" font-size="13.7164px">1</text>
		<text transform="matrix(0.9113 0 0 1 542.6011 896.1807)" font-family="'Helvetica'" font-size="13.7164px">33</text>
		<text transform="matrix(0.953 0 0 1 432.2148 1463.9004)" font-family="'Helvetica'" font-size="13.72px">404</text>
		<text transform="matrix(0.9397 0 0 1 347.0608 1422.0452)" font-family="'Helvetica'" font-size="13.72px">278</text>
	</g>
	<g id="income-number_00000023978770896249440330000002153054995776149165_">
		<text transform="matrix(0.9113 0 0 1 344.6099 988.8135)" font-family="'Helvetica'" font-size="13.7164px">$76,316</text>
		<text transform="matrix(0.9113 0 0 1 294.0278 886.9893)" font-family="'Helvetica'" font-size="13.7164px">$81,667</text>
		<text transform="matrix(0.9113 0 0 1 390.5786 860.8711)" font-family="'Helvetica'" font-size="13.7164px">$65,314</text>
		<text transform="matrix(0.9113 0 0 1 525.8755 877.6816)" font-family="'Helvetica'" font-size="13.7164px">$54,390</text>
		<text transform="matrix(0.9113 0 0 1 635.2661 912.4912)" font-family="'Helvetica'" font-size="13.7164px">$47,035</text>
		<text transform="matrix(0.9113 0 0 1 432.603 947.7529)" font-family="'Helvetica'" font-size="13.7164px">$64,179</text>
		<text transform="matrix(0.9113 0 0 1 552.0571 979.6826)" font-family="'Helvetica'" font-size="13.7164px">$52,481</text>
		<text transform="matrix(0.9113 0 0 1 445.8696 1046.4473)" font-family="'Helvetica'" font-size="13.7164px">$64,862</text>
		<text transform="matrix(0.9113 0 0 1 320.1997 1112.1787)" font-family="'Helvetica'" font-size="13.7164px">$70,262</text>
		<text transform="matrix(0.9113 0 0 1 490.0679 1132.7041)" font-family="'Helvetica'" font-size="13.7164px">$62,737</text>
		<text transform="matrix(0.9113 0 0 1 352.7778 1265.1123)" font-family="'Helvetica'" font-size="13.7164px">$57,176</text>
		<text transform="matrix(0.9113 0 0 1 465.2847 1227.3926)" font-family="'Helvetica'" font-size="13.7164px">$61,503</text>
		<text transform="matrix(0.9113 0 0 1 336.4155 1406.0439)" font-family="'Helvetica'" font-size="13.7164px">$58,200</text>
		<text transform="matrix(0.953 0 0 1 418.8828 1447.9414)" font-family="'Helvetica'" font-size="13.72px">$54,188</text>
	</g>
	<g id="homeless-legends_00000179615519082974701900000003074139172654204320_">
		<rect x="775.829" y="591.383" fill="none" stroke="#999999" stroke-miterlimit="10" width="197.843" height="48.469"/>
		<text transform="matrix(0.7311 0 0 1 501.0601 1561.1748)" font-family="'Helvetica-Bold'" font-size="16.1966px">Number of Homeless</text>
		<rect x="501.716" y="1570.69" fill="none" stroke="#999999" stroke-miterlimit="10" width="197.926" height="50.294"/>
	</g>
	<rect x="773.747" y="409.624" fill="none" stroke="#999999" stroke-miterlimit="10" width="197.843" height="48.469"/>
	<g id="arrow-2_00000083052844163612168330000010296265799830171551_">
		<path fill="none" stroke="#C1272D" stroke-width="2" stroke-miterlimit="10" d="M493.05,194.301
			c-3.096,11.921-91.347-11.318-122.445-28.348"/>
		<g>
			<path fill="#C1272D" d="M373.536,167.6l-1.352,7.555l-0.266-0.037l-5.203-10.261c-2.25-3.08-4.5-6.16-6.749-9.241
				c3.335,1.852,6.669,3.704,10.004,5.555l10.826,3.895l0.094,0.232L373.536,167.6z"/>
		</g>
	</g>
	
		<ellipse id="circle-2_00000079487534025684076460000008642794103749349511_" fill="none" stroke="#C1272D" stroke-width="2" stroke-miterlimit="10" cx="546.748" cy="192.615" rx="42.172" ry="9.363"/>
	
		<ellipse id="circle-1_00000173158083469528955520000009397542777447174334_" fill="none" stroke="#C1272D" stroke-width="2" stroke-miterlimit="10" cx="546.748" cy="212.444" rx="42.172" ry="9.363"/>
	<g id="arrow-1_00000029751431942397103900000014514124244600051084_">
		<path fill="none" stroke="#C1272D" stroke-width="2" stroke-miterlimit="10" d="M373.688,264.959
			c27.022-26.134,119.357-61.45,126.719-42.065"/>
		<g>
			<path fill="#C1272D" d="M376.3,262.272l-4.211-7.308l-0.261,0.137l-1.558,12.546c-1.179,4.022-2.358,8.045-3.537,12.067
				c2.758-3.156,5.516-6.313,8.275-9.469l9.742-8.058l0.01-0.275L376.3,262.272z"/>
		</g>
	</g>
</g>
<style>
#g-vermont-map-NEW_2-Artboard_1-interactions-img rect, #g-vermont-map-NEW_2-Artboard_1-interactions-img circle, #g-vermont-map-NEW_2-Artboard_1-interactions-img path, #g-vermont-map-NEW_2-Artboard_1-interactions-img line, #g-vermont-map-NEW_2-Artboard_1-interactions-img polyline, #g-vermont-map-NEW_2-Artboard_1-interactions-img polygon { vector-effect: non-scaling-stroke; }
</style>
</svg>

