<?xml version="1.0" encoding="utf-8"?>
<!-- Generator: Adobe Illustrator 27.0.0, SVG Export Plug-In . SVG Version: 6.00 Build 0)  -->
<svg version="1.2" baseProfile="tiny" id="g-vermont-map-NEW-Artboard_9-interactions-img" xmlns="http://www.w3.org/2000/svg" xmlns:xlink="http://www.w3.org/1999/xlink"
	 x="0px" y="0px" viewBox="0 0 971 719.5" overflow="visible" xml:space="preserve">
<g>
	<g id="homeless-box_00000024711838664592795640000008636143116849701545_">
		<rect x="661.671" y="578.356" fill="none" stroke="#999999" stroke-miterlimit="10" width="211.19" height="47.131"/>
		<text transform="matrix(0.9864 0 0 1 582.9141 1347.793)" font-family="'Helvetica'" font-size="13.4649px">V</text>
		<text transform="matrix(0.9864 0 0 1 591.0469 1347.793)" font-family="'Helvetica'" font-size="13.4649px">e</text>
		<text transform="matrix(0.9864 0 0 1 598.4326 1347.793)" font-family="'Helvetica'" font-size="13.4649px">r</text>
		<text transform="matrix(0.9864 0 0 1 602.8555 1347.793)" font-family="'Helvetica'" font-size="13.4649px">m</text>
		<text transform="matrix(0.9864 0 0 1 613.9199 1347.793)" font-family="'Helvetica'" font-size="13.4649px">o</text>
		<text transform="matrix(0.9864 0 0 1 621.3057 1347.793)" font-family="'Helvetica'" font-size="13.4649px">n</text>
		<text transform="matrix(0.9864 0 0 1 628.6924 1347.793)" font-family="'Helvetica'" font-size="13.4649px">t</text>
		<text transform="matrix(0.9864 0 0 1 691.2969 1348.1436)" font-family="'Helvetica'" font-size="13.4649px">2,780</text>
		<text transform="matrix(0.7539 0 0 1 566.5605 1312.0215)" font-family="'Helvetica-Bold'" font-size="14.6895px">Number of Homeless</text>
		<rect x="567.175" y="1320.653" fill="none" stroke="#999999" stroke-miterlimit="10" width="185.094" height="45.614"/>
	</g>
	<g id="income-box_00000025443629253816672700000001113856943381281675_">
		<rect x="659.448" y="401.615" fill="none" stroke="#999999" stroke-miterlimit="10" width="211.19" height="47.131"/>
		<text transform="matrix(0.7539 0 0 1 564.7383 1143.0547)" font-family="'Helvetica-Bold'" font-size="14.6895px">Median Household Income</text>
		<text transform="matrix(0.9397 0 0 1 640.7383 1229.4727)" font-family="'Helvetica'" font-size="12.4401px">Legend</text>
		<text transform="matrix(0.8982 0 0 1 556.2324 1252.3535)" font-family="'Helvetica'" font-size="11.6081px">47,035</text>
		<text transform="matrix(0.8982 0 0 1 734.4609 1250.041)" font-family="'Helvetica'" font-size="11.6081px">81,667</text>
		<text transform="matrix(0.9864 0 0 1 582.4902 1176.8203)" font-family="'Helvetica'" font-size="13.4649px">V</text>
		<text transform="matrix(0.9864 0 0 1 590.623 1176.8203)" font-family="'Helvetica'" font-size="13.4649px">e</text>
		<text transform="matrix(0.9864 0 0 1 598.0088 1176.8203)" font-family="'Helvetica'" font-size="13.4649px">r</text>
		<text transform="matrix(0.9864 0 0 1 602.4316 1176.8203)" font-family="'Helvetica'" font-size="13.4649px">m</text>
		<text transform="matrix(0.9864 0 0 1 613.4961 1176.8203)" font-family="'Helvetica'" font-size="13.4649px">o</text>
		<text transform="matrix(0.9864 0 0 1 620.8818 1176.8203)" font-family="'Helvetica'" font-size="13.4649px">n</text>
		<text transform="matrix(0.9864 0 0 1 628.2686 1176.8203)" font-family="'Helvetica'" font-size="13.4649px">t</text>
		<text transform="matrix(0.9864 0 0 1 679.1816 1177.168)" font-family="'Helvetica'" font-size="13.4649px">$63,447</text>
		<rect x="565.227" y="1149.601" fill="none" stroke="#999999" stroke-miterlimit="10" width="185.094" height="45.614"/>
	</g>
	<g id="county-names_00000143576506146438442150000003683510462457395338_">
		<text transform="matrix(0.9397 0 0 1 266.5039 838.8125)" font-family="'Helvetica-Bold'" font-size="12.4401px">Grandlsle County</text>
		<text transform="matrix(0.9397 0 0 1 359.0449 817.041)" font-family="'Helvetica-Bold'" font-size="12.4401px">Franklin County</text>
		<text transform="matrix(0.9397 0 0 1 488.1816 830.3682)" font-family="'Helvetica-Bold'" font-size="12.4401px">Orleans County</text>
		<text transform="matrix(0.9397 0 0 1 590.4824 862.9775)" font-family="'Helvetica-Bold'" font-size="12.4401px">Essex County</text>
		<text transform="matrix(0.9397 0 0 1 307.9551 930.127)" font-family="'Helvetica-Bold'" font-size="12.4401px">Chittenden County</text>
		<text transform="matrix(0.9397 0 0 1 395.6582 893.9834)" font-family="'Helvetica-Bold'" font-size="12.4401px">Lamolle County</text>
		<text transform="matrix(0.9397 0 0 1 492.2109 923.917)" font-family="'Helvetica-Bold'" font-size="12.4401px">Caledonia County</text>
		<text transform="matrix(0.9397 0 0 1 402.6484 985.5029)" font-family="'Helvetica-Bold'" font-size="12.4401px">W</text>
		<text transform="matrix(0.9397 0 0 1 413.2539 985.5029)" font-family="'Helvetica-Bold'" font-size="12.4401px">a</text>
		<text transform="matrix(0.9397 0 0 1 419.7559 985.5029)" font-family="'Helvetica-Bold'" font-size="12.4401px">s</text>
		<text transform="matrix(0.9397 0 0 1 426.2568 985.5029)" font-family="'Helvetica-Bold'" font-size="12.4401px">h</text>
		<text transform="matrix(0.9397 0 0 1 433.3975 985.5029)" font-family="'Helvetica-Bold'" font-size="12.4401px">i</text>
		<text transform="matrix(0.9397 0 0 1 436.6455 985.5029)" font-family="'Helvetica-Bold'" font-size="12.4401px">n</text>
		<text transform="matrix(0.9397 0 0 1 443.7861 985.5029)" font-family="'Helvetica-Bold'" font-size="12.4401px">g</text>
		<text transform="matrix(0.9397 0 0 1 450.9277 985.5029)" font-family="'Helvetica-Bold'" font-size="12.4401px">t</text>
		<text transform="matrix(0.9397 0 0 1 454.8203 985.5029)" font-family="'Helvetica-Bold'" font-size="12.4401px">o</text>
		<text transform="matrix(0.9397 0 0 1 461.9609 985.5029)" font-family="'Helvetica-Bold'" font-size="12.4401px">n</text>
		<text transform="matrix(0.9397 0 0 1 469.1016 985.5029)" font-family="'Helvetica-Bold'" font-size="12.4401px"> </text>
		<text transform="matrix(0.9397 0 0 1 472.3496 985.5029)" font-family="'Helvetica-Bold'" font-size="12.4401px">C</text>
		<text transform="matrix(0.9397 0 0 1 480.792 985.5029)" font-family="'Helvetica-Bold'" font-size="12.4401px">o</text>
		<text transform="matrix(0.9397 0 0 1 487.9326 985.5029)" font-family="'Helvetica-Bold'" font-size="12.4401px">u</text>
		<text transform="matrix(0.9397 0 0 1 495.0732 985.5029)" font-family="'Helvetica-Bold'" font-size="12.4401px">n</text>
		<text transform="matrix(0.9397 0 0 1 502.2139 985.5029)" font-family="'Helvetica-Bold'" font-size="12.4401px">t</text>
		<text transform="matrix(0.9397 0 0 1 506.1074 985.5029)" font-family="'Helvetica-Bold'" font-size="12.4401px">y</text>
		<text transform="matrix(0.9397 0 0 1 291.9453 1045.124)" font-family="'Helvetica-Bold'" font-size="12.4401px">Addison County</text>
		<text transform="matrix(0.9397 0 0 1 455.6719 1061.666)" font-family="'Helvetica-Bold'" font-size="12.4401px">Orange County</text>
		<text transform="matrix(0.9397 0 0 1 324.3594 1183.8232)" font-family="'Helvetica-Bold'" font-size="12.4401px">Rutland County</text>
		<text transform="matrix(0.9397 0 0 1 424.7012 1148.5762)" font-family="'Helvetica-Bold'" font-size="12.4401px">W</text>
		<text transform="matrix(0.9397 0 0 1 435.6318 1148.5762)" font-family="'Helvetica-Bold'" font-size="12.4401px">i</text>
		<text transform="matrix(0.9397 0 0 1 438.8799 1148.5762)" font-family="'Helvetica-Bold'" font-size="12.4401px">n</text>
		<text transform="matrix(0.9397 0 0 1 446.0205 1148.5762)" font-family="'Helvetica-Bold'" font-size="12.4401px">d</text>
		<text transform="matrix(0.9397 0 0 1 453.1611 1148.5762)" font-family="'Helvetica-Bold'" font-size="12.4401px">s</text>
		<text transform="matrix(0.9397 0 0 1 459.6631 1148.5762)" font-family="'Helvetica-Bold'" font-size="12.4401px">o</text>
		<text transform="matrix(0.9397 0 0 1 466.8037 1148.5762)" font-family="'Helvetica-Bold'" font-size="12.4401px">r</text>
		<text transform="matrix(0.9397 0 0 1 471.3535 1148.5762)" font-family="'Helvetica-Bold'" font-size="12.4401px"> </text>
		<text transform="matrix(0.9397 0 0 1 474.6006 1148.5762)" font-family="'Helvetica-Bold'" font-size="12.4401px">C</text>
		<text transform="matrix(0.9397 0 0 1 483.043 1148.5762)" font-family="'Helvetica-Bold'" font-size="12.4401px">o</text>
		<text transform="matrix(0.9397 0 0 1 490.1836 1148.5762)" font-family="'Helvetica-Bold'" font-size="12.4401px">u</text>
		<text transform="matrix(0.9397 0 0 1 497.3252 1148.5762)" font-family="'Helvetica-Bold'" font-size="12.4401px">n</text>
		<text transform="matrix(0.9397 0 0 1 504.4658 1148.5762)" font-family="'Helvetica-Bold'" font-size="12.4401px">t</text>
		<text transform="matrix(0.9397 0 0 1 508.3584 1148.5762)" font-family="'Helvetica-Bold'" font-size="12.4401px">y</text>
		<text transform="matrix(0.9397 0 0 1 298.3418 1309.5674)" font-family="'Helvetica-Bold'" font-size="12.4401px">Bennington County</text>
		<text transform="matrix(0.9397 0 0 1 379.8945 1352.9961)" font-family="'Helvetica-Bold'" font-size="12.4401px">W</text>
		<text transform="matrix(0.9397 0 0 1 390.8252 1352.9961)" font-family="'Helvetica-Bold'" font-size="12.4401px">i</text>
		<text transform="matrix(0.9397 0 0 1 394.0732 1352.9961)" font-family="'Helvetica-Bold'" font-size="12.4401px">n</text>
		<text transform="matrix(0.9397 0 0 1 401.2139 1352.9961)" font-family="'Helvetica-Bold'" font-size="12.4401px">d</text>
		<text transform="matrix(0.9397 0 0 1 408.3545 1352.9961)" font-family="'Helvetica-Bold'" font-size="12.4401px">h</text>
		<text transform="matrix(0.9397 0 0 1 415.4961 1352.9961)" font-family="'Helvetica-Bold'" font-size="12.4401px">a</text>
		<text transform="matrix(0.9397 0 0 1 421.9971 1352.9961)" font-family="'Helvetica-Bold'" font-size="12.4401px">m</text>
		<text transform="matrix(0.9397 0 0 1 432.3916 1352.9961)" font-family="'Helvetica-Bold'" font-size="12.4401px"> </text>
		<text transform="matrix(0.9397 0 0 1 435.6396 1352.9961)" font-family="'Helvetica-Bold'" font-size="12.4401px">C</text>
		<text transform="matrix(0.9397 0 0 1 444.082 1352.9961)" font-family="'Helvetica-Bold'" font-size="12.4401px">o</text>
		<text transform="matrix(0.9397 0 0 1 451.2227 1352.9961)" font-family="'Helvetica-Bold'" font-size="12.4401px">u</text>
		<text transform="matrix(0.9397 0 0 1 458.3633 1352.9961)" font-family="'Helvetica-Bold'" font-size="12.4401px">n</text>
		<text transform="matrix(0.9397 0 0 1 465.5039 1352.9961)" font-family="'Helvetica-Bold'" font-size="12.4401px">t</text>
		<text transform="matrix(0.9397 0 0 1 469.3975 1352.9961)" font-family="'Helvetica-Bold'" font-size="12.4401px">y</text>
	</g>
	<g id="homeless_00000151530484945471345380000004462708688038029467_">
		<text transform="matrix(0.9397 0 0 1 301.6621 877.9248)" font-family="'Helvetica'" font-size="12.4401px">1</text>
		<text transform="matrix(0.9397 0 0 1 388.2168 850.8555)" font-family="'Helvetica'" font-size="12.4401px">162</text>
		<text transform="matrix(0.9397 0 0 1 351.5625 1216.6396)" font-family="'Helvetica'" font-size="12.4401px">374</text>
		<text transform="matrix(0.9397 0 0 1 456.8965 1181.7871)" font-family="'Helvetica'" font-size="12.4401px">139</text>
		<text transform="matrix(0.9397 0 0 1 333.1777 1344.126)" font-family="'Helvetica'" font-size="12.4401px">278</text>
		<text transform="matrix(0.9785 0 0 1 419.7886 1379.9707)" font-family="'Helvetica'" font-size="10.4286px">404</text>
		<text transform="matrix(0.9397 0 0 1 484.1738 1093.6641)" font-family="'Helvetica'" font-size="12.4401px">38</text>
		<text transform="matrix(0.9397 0 0 1 322.4609 1077.0781)" font-family="'Helvetica'" font-size="12.4401px">97</text>
		<text transform="matrix(0.9397 0 0 1 439.3613 1019.7842)" font-family="'Helvetica'" font-size="12.4401px">389</text>
		<text transform="matrix(0.9397 0 0 1 341.9746 968.5332)" font-family="'Helvetica'" font-size="12.4401px">668</text>
		<text transform="matrix(0.9397 0 0 1 428.6758 930.1768)" font-family="'Helvetica'" font-size="12.4401px">57</text>
		<text transform="matrix(0.9397 0 0 1 538.7598 958.1689)" font-family="'Helvetica'" font-size="12.4401px">139</text>
		<text transform="matrix(0.9397 0 0 1 623.5137 897.0049)" font-family="'Helvetica'" font-size="12.4401px">1</text>
		<text transform="matrix(0.9397 0 0 1 518.4355 865.8086)" font-family="'Helvetica'" font-size="12.4401px">33</text>
	</g>
	<g id="income_00000104701146060427128130000009546390138308921999_">
		<text transform="matrix(0.9397 0 0 1 285.9805 857.4717)" font-family="'Helvetica'" font-size="12.4401px">$81,667</text>
		<text transform="matrix(0.9397 0 0 1 376.2695 833.7852)" font-family="'Helvetica'" font-size="12.4401px">$65,314</text>
		<text transform="matrix(0.9397 0 0 1 502.7949 849.0303)" font-family="'Helvetica'" font-size="12.4401px">$54,390</text>
		<text transform="matrix(0.9397 0 0 1 605.0957 880.6016)" font-family="'Helvetica'" font-size="12.4401px">$47,035</text>
		<text transform="matrix(0.9397 0 0 1 415.5703 912.585)" font-family="'Helvetica'" font-size="12.4401px">$64,179</text>
		<text transform="matrix(0.9397 0 0 1 527.2812 941.54)" font-family="'Helvetica'" font-size="12.4401px">$52,481</text>
		<text transform="matrix(0.9397 0 0 1 427.9766 1002.0918)" font-family="'Helvetica'" font-size="12.4401px">$64,862</text>
		<text transform="matrix(0.9397 0 0 1 310.4551 1061.71)" font-family="'Helvetica'" font-size="12.4401px">$70,262</text>
		<text transform="matrix(0.9397 0 0 1 469.3105 1080.3252)" font-family="'Helvetica'" font-size="12.4401px">$62,737</text>
		<text transform="matrix(0.9397 0 0 1 340.9199 1200.4111)" font-family="'Helvetica'" font-size="12.4401px">$57,176</text>
		<text transform="matrix(0.9397 0 0 1 446.1328 1166.1992)" font-family="'Helvetica'" font-size="12.4401px">$61,503</text>
		<text transform="matrix(0.9397 0 0 1 325.6191 1328.2266)" font-family="'Helvetica'" font-size="12.4401px">$58,200</text>
		<text transform="matrix(0.9785 0 0 1 412.0967 1367.4199)" font-family="'Helvetica'" font-size="10.4286px">$54,188</text>
	</g>
	<g id="arrow-4_00000016061939813249277310000007781039508958195351_">
		<path fill="none" stroke="#C1272D" stroke-width="2" stroke-miterlimit="10" d="M359.815,192.236
			c-3.315,11.627-98.089-11.144-131.01-27.718"/>
		<g>
			<path fill="#C1272D" d="M231.78,166.065l-1.056,7.602l-0.267-0.027l-5.599-10.051c-2.368-2.99-4.736-5.98-7.104-8.971
				c3.404,1.721,6.808,3.441,10.213,5.161l10.969,3.47l0.103,0.228L231.78,166.065z"/>
		</g>
	</g>
	
		<ellipse id="circe-4_00000110444219843895075010000014815927679890302365_" fill="none" stroke="#C1272D" stroke-width="2" stroke-miterlimit="10" cx="417.136" cy="190.598" rx="45.017" ry="9.105"/>
	
		<ellipse id="circle-3_00000072963418894744508530000012203400875948471171_" fill="none" stroke="#C1272D" stroke-width="2" stroke-miterlimit="10" cx="417.136" cy="209.878" rx="45.017" ry="9.105"/>
	<g id="arrow-3_00000162337581503127415820000016323863733926021284_">
		<path fill="none" stroke="#C1272D" stroke-width="2" stroke-miterlimit="10" d="M232.529,260.831
			c29.008-25.401,127.292-59.612,135.14-40.791"/>
		<g>
			<path fill="#C1272D" d="M235.27,258.268l-3.899-7.479l-0.267,0.126l-2.086,12.47c-1.348,3.969-2.695,7.938-4.042,11.908
				c2.889-3.037,5.777-6.075,8.667-9.111l10.073-7.64l0.022-0.274L235.27,258.268z"/>
		</g>
	</g>
</g>
<style>
#g-vermont-map-NEW-Artboard_9-interactions-img rect, #g-vermont-map-NEW-Artboard_9-interactions-img circle, #g-vermont-map-NEW-Artboard_9-interactions-img path, #g-vermont-map-NEW-Artboard_9-interactions-img line, #g-vermont-map-NEW-Artboard_9-interactions-img polyline, #g-vermont-map-NEW-Artboard_9-interactions-img polygon { vector-effect: non-scaling-stroke; }
</style>
</svg>

