<?xml version="1.0" encoding="utf-8"?>
<!-- Generator: Adobe Illustrator 27.0.0, SVG Export Plug-In . SVG Version: 6.00 Build 0)  -->
<svg version="1.2" baseProfile="tiny" id="g-vermont-map-NEW-Artboard_11-interactions-img" xmlns="http://www.w3.org/2000/svg" xmlns:xlink="http://www.w3.org/1999/xlink"
	 x="0px" y="0px" viewBox="0 0 802 689.5" overflow="visible" xml:space="preserve">
<g>
	<g id="homeless-box_00000179604068265651148260000004181375454831851413_">
		<text transform="matrix(1.0892 0 0 1 678.6279 -160.6006)" font-family="'Helvetica'" font-size="13.9127px">V</text>
		<text transform="matrix(1.0892 0 0 1 687.9072 -160.6006)" font-family="'Helvetica'" font-size="13.9127px">e</text>
		<text transform="matrix(1.0892 0 0 1 696.335 -160.6006)" font-family="'Helvetica'" font-size="13.9127px">r</text>
		<text transform="matrix(1.0892 0 0 1 701.3809 -160.6006)" font-family="'Helvetica'" font-size="13.9127px">m</text>
		<text transform="matrix(1.0892 0 0 1 714.0049 -160.6006)" font-family="'Helvetica'" font-size="13.9127px">o</text>
		<text transform="matrix(1.0892 0 0 1 722.4326 -160.6006)" font-family="'Helvetica'" font-size="13.9127px">n</text>
		<text transform="matrix(1.0892 0 0 1 730.8604 -160.6006)" font-family="'Helvetica'" font-size="13.9127px">t</text>
		<text transform="matrix(1.0892 0 0 1 802.292 -160.2393)" font-family="'Helvetica'" font-size="13.9127px">2,780</text>
		<text transform="matrix(0.8325 0 0 1 659.9697 -197.5625)" font-family="'Helvetica-Bold'" font-size="15.178px">Number of Homeless</text>
		<rect x="660.671" y="-188.644" fill="none" stroke="#999999" stroke-miterlimit="10" width="211.19" height="47.131"/>
		<rect x="566.175" y="553.653" fill="none" stroke="#999999" stroke-miterlimit="10" width="185.094" height="45.614"/>
	</g>
	<g id="income-box_00000057837271482119895610000000115159699536176566_">
		<text transform="matrix(0.8325 0 0 1 657.8906 -372.1484)" font-family="'Helvetica-Bold'" font-size="15.178px">Median Household Income</text>
		<text transform="matrix(1.0377 0 0 1 744.6045 -282.8545)" font-family="'Helvetica'" font-size="12.8539px">Legend</text>
		<text transform="matrix(0.9918 0 0 1 648.1836 -259.2168)" font-family="'Helvetica'" font-size="11.9941px">47,035</text>
		<text transform="matrix(0.9918 0 0 1 851.542 -261.6025)" font-family="'Helvetica'" font-size="11.9941px">81,667</text>
		<text transform="matrix(1.0892 0 0 1 678.1436 -337.2617)" font-family="'Helvetica'" font-size="13.9127px">V</text>
		<text transform="matrix(1.0892 0 0 1 687.4229 -337.2617)" font-family="'Helvetica'" font-size="13.9127px">e</text>
		<text transform="matrix(1.0892 0 0 1 695.8506 -337.2617)" font-family="'Helvetica'" font-size="13.9127px">r</text>
		<text transform="matrix(1.0892 0 0 1 700.8965 -337.2617)" font-family="'Helvetica'" font-size="13.9127px">m</text>
		<text transform="matrix(1.0892 0 0 1 713.5205 -337.2617)" font-family="'Helvetica'" font-size="13.9127px">o</text>
		<text transform="matrix(1.0892 0 0 1 721.9482 -337.2617)" font-family="'Helvetica'" font-size="13.9127px">n</text>
		<text transform="matrix(1.0892 0 0 1 730.376 -337.2617)" font-family="'Helvetica'" font-size="13.9127px">t</text>
		<text transform="matrix(1.0892 0 0 1 788.4688 -336.8994)" font-family="'Helvetica'" font-size="13.9127px">$63,447</text>
		<rect x="658.448" y="-365.385" fill="none" stroke="#999999" stroke-miterlimit="10" width="211.19" height="47.131"/>
		<rect x="564.227" y="382.601" fill="none" stroke="#999999" stroke-miterlimit="10" width="185.094" height="45.614"/>
	</g>
	<g id="county-names_00000150104093247661992040000001823626747847370417_">
		<text transform="matrix(1.0377 0 0 1 317.6104 -686.5093)" font-family="'Helvetica-Bold'" font-size="12.8539px">Grandlsle County</text>
		<text transform="matrix(1.0377 0 0 1 423.1968 -709.0034)" font-family="'Helvetica-Bold'" font-size="12.8539px">Franklin County</text>
		<text transform="matrix(1.0377 0 0 1 570.541 -695.2329)" font-family="'Helvetica-Bold'" font-size="12.8539px">Orleans County</text>
		<text transform="matrix(1.0377 0 0 1 687.2637 -661.54)" font-family="'Helvetica-Bold'" font-size="12.8539px">Essex County</text>
		<text transform="matrix(1.0377 0 0 1 364.9048 -592.1572)" font-family="'Helvetica-Bold'" font-size="12.8539px">Chittenden County</text>
		<text transform="matrix(1.0377 0 0 1 464.9722 -629.5034)" font-family="'Helvetica-Bold'" font-size="12.8539px">Lamolle County</text>
		<text transform="matrix(1.0377 0 0 1 575.1377 -598.5737)" font-family="'Helvetica-Bold'" font-size="12.8539px">Caledonia County</text>
		<text transform="matrix(1.0377 0 0 1 472.9497 -534.9404)" font-family="'Helvetica-Bold'" font-size="12.8539px">W</text>
		<text transform="matrix(1.0377 0 0 1 485.0508 -534.9404)" font-family="'Helvetica-Bold'" font-size="12.8539px">a</text>
		<text transform="matrix(1.0377 0 0 1 492.4688 -534.9404)" font-family="'Helvetica-Bold'" font-size="12.8539px">s</text>
		<text transform="matrix(1.0377 0 0 1 499.8867 -534.9404)" font-family="'Helvetica-Bold'" font-size="12.8539px">h</text>
		<text transform="matrix(1.0377 0 0 1 508.0342 -534.9404)" font-family="'Helvetica-Bold'" font-size="12.8539px">i</text>
		<text transform="matrix(1.0377 0 0 1 511.7402 -534.9404)" font-family="'Helvetica-Bold'" font-size="12.8539px">n</text>
		<text transform="matrix(1.0377 0 0 1 519.8877 -534.9404)" font-family="'Helvetica-Bold'" font-size="12.8539px">g</text>
		<text transform="matrix(1.0377 0 0 1 528.0352 -534.9404)" font-family="'Helvetica-Bold'" font-size="12.8539px">t</text>
		<text transform="matrix(1.0377 0 0 1 532.4775 -534.9404)" font-family="'Helvetica-Bold'" font-size="12.8539px">o</text>
		<text transform="matrix(1.0377 0 0 1 540.625 -534.9404)" font-family="'Helvetica-Bold'" font-size="12.8539px">n</text>
		<text transform="matrix(1.0377 0 0 1 548.7725 -534.9404)" font-family="'Helvetica-Bold'" font-size="12.8539px"> </text>
		<text transform="matrix(1.0377 0 0 1 552.4785 -534.9404)" font-family="'Helvetica-Bold'" font-size="12.8539px">C</text>
		<text transform="matrix(1.0377 0 0 1 562.1104 -534.9404)" font-family="'Helvetica-Bold'" font-size="12.8539px">o</text>
		<text transform="matrix(1.0377 0 0 1 570.2578 -534.9404)" font-family="'Helvetica-Bold'" font-size="12.8539px">u</text>
		<text transform="matrix(1.0377 0 0 1 578.4062 -534.9404)" font-family="'Helvetica-Bold'" font-size="12.8539px">n</text>
		<text transform="matrix(1.0377 0 0 1 586.5537 -534.9404)" font-family="'Helvetica-Bold'" font-size="12.8539px">t</text>
		<text transform="matrix(1.0377 0 0 1 590.9951 -534.9404)" font-family="'Helvetica-Bold'" font-size="12.8539px">y</text>
		<text transform="matrix(1.0377 0 0 1 346.6382 -473.3374)" font-family="'Helvetica-Bold'" font-size="12.8539px">Addison County</text>
		<text transform="matrix(1.0377 0 0 1 533.4473 -456.2456)" font-family="'Helvetica-Bold'" font-size="12.8539px">Orange County</text>
		<text transform="matrix(1.0377 0 0 1 383.623 -330.0234)" font-family="'Helvetica-Bold'" font-size="12.8539px">Rutland County</text>
		<text transform="matrix(1.0377 0 0 1 498.1094 -366.4424)" font-family="'Helvetica-Bold'" font-size="12.8539px">W</text>
		<text transform="matrix(1.0377 0 0 1 510.5811 -366.4424)" font-family="'Helvetica-Bold'" font-size="12.8539px">i</text>
		<text transform="matrix(1.0377 0 0 1 514.2871 -366.4424)" font-family="'Helvetica-Bold'" font-size="12.8539px">n</text>
		<text transform="matrix(1.0377 0 0 1 522.4346 -366.4424)" font-family="'Helvetica-Bold'" font-size="12.8539px">d</text>
		<text transform="matrix(1.0377 0 0 1 530.582 -366.4424)" font-family="'Helvetica-Bold'" font-size="12.8539px">s</text>
		<text transform="matrix(1.0377 0 0 1 538.001 -366.4424)" font-family="'Helvetica-Bold'" font-size="12.8539px">o</text>
		<text transform="matrix(1.0377 0 0 1 546.1484 -366.4424)" font-family="'Helvetica-Bold'" font-size="12.8539px">r</text>
		<text transform="matrix(1.0377 0 0 1 551.3389 -366.4424)" font-family="'Helvetica-Bold'" font-size="12.8539px"> </text>
		<text transform="matrix(1.0377 0 0 1 555.0449 -366.4424)" font-family="'Helvetica-Bold'" font-size="12.8539px">C</text>
		<text transform="matrix(1.0377 0 0 1 564.6777 -366.4424)" font-family="'Helvetica-Bold'" font-size="12.8539px">o</text>
		<text transform="matrix(1.0377 0 0 1 572.8252 -366.4424)" font-family="'Helvetica-Bold'" font-size="12.8539px">u</text>
		<text transform="matrix(1.0377 0 0 1 580.9727 -366.4424)" font-family="'Helvetica-Bold'" font-size="12.8539px">n</text>
		<text transform="matrix(1.0377 0 0 1 589.1201 -366.4424)" font-family="'Helvetica-Bold'" font-size="12.8539px">t</text>
		<text transform="matrix(1.0377 0 0 1 593.5615 -366.4424)" font-family="'Helvetica-Bold'" font-size="12.8539px">y</text>
		<text transform="matrix(1.0377 0 0 1 353.9365 -200.0996)" font-family="'Helvetica-Bold'" font-size="12.8539px">Bennington County</text>
		<text transform="matrix(1.0377 0 0 1 446.9858 -155.2246)" font-family="'Helvetica-Bold'" font-size="12.8539px">W</text>
		<text transform="matrix(1.0377 0 0 1 459.458 -155.2246)" font-family="'Helvetica-Bold'" font-size="12.8539px">i</text>
		<text transform="matrix(1.0377 0 0 1 463.1636 -155.2246)" font-family="'Helvetica-Bold'" font-size="12.8539px">n</text>
		<text transform="matrix(1.0377 0 0 1 471.3115 -155.2246)" font-family="'Helvetica-Bold'" font-size="12.8539px">d</text>
		<text transform="matrix(1.0377 0 0 1 479.459 -155.2246)" font-family="'Helvetica-Bold'" font-size="12.8539px">h</text>
		<text transform="matrix(1.0377 0 0 1 487.6064 -155.2246)" font-family="'Helvetica-Bold'" font-size="12.8539px">a</text>
		<text transform="matrix(1.0377 0 0 1 495.0244 -155.2246)" font-family="'Helvetica-Bold'" font-size="12.8539px">m</text>
		<text transform="matrix(1.0377 0 0 1 506.8848 -155.2246)" font-family="'Helvetica-Bold'" font-size="12.8539px"> </text>
		<text transform="matrix(1.0377 0 0 1 510.5908 -155.2246)" font-family="'Helvetica-Bold'" font-size="12.8539px">C</text>
		<text transform="matrix(1.0377 0 0 1 520.2227 -155.2246)" font-family="'Helvetica-Bold'" font-size="12.8539px">o</text>
		<text transform="matrix(1.0377 0 0 1 528.3701 -155.2246)" font-family="'Helvetica-Bold'" font-size="12.8539px">u</text>
		<text transform="matrix(1.0377 0 0 1 536.5176 -155.2246)" font-family="'Helvetica-Bold'" font-size="12.8539px">n</text>
		<text transform="matrix(1.0377 0 0 1 544.666 -155.2246)" font-family="'Helvetica-Bold'" font-size="12.8539px">t</text>
		<text transform="matrix(1.0377 0 0 1 549.1074 -155.2246)" font-family="'Helvetica-Bold'" font-size="12.8539px">y</text>
	</g>
	<g id="homeless_00000150798398598860254810000008411556248962875520_">
		<text transform="matrix(1.0377 0 0 1 357.7246 -646.0981)" font-family="'Helvetica'" font-size="12.8539px">1</text>
		<text transform="matrix(1.0377 0 0 1 456.4839 -674.0664)" font-family="'Helvetica'" font-size="12.8539px">162</text>
		<text transform="matrix(1.0377 0 0 1 414.6597 -296.1152)" font-family="'Helvetica'" font-size="12.8539px">374</text>
		<text transform="matrix(1.0377 0 0 1 534.8457 -332.126)" font-family="'Helvetica'" font-size="12.8539px">139</text>
		<text transform="matrix(1.0377 0 0 1 393.6831 -164.3906)" font-family="'Helvetica'" font-size="12.8539px">278</text>
		<text transform="matrix(1.0377 0 0 1 483.7163 -123.6875)" font-family="'Helvetica'" font-size="12.8539px">404</text>
		<text transform="matrix(1.0377 0 0 1 565.9688 -423.1812)" font-family="'Helvetica'" font-size="12.8539px">38</text>
		<text transform="matrix(1.0377 0 0 1 381.4561 -440.3198)" font-family="'Helvetica'" font-size="12.8539px">97</text>
		<text transform="matrix(1.0377 0 0 1 514.8389 -499.5186)" font-family="'Helvetica'" font-size="12.8539px">389</text>
		<text transform="matrix(1.0377 0 0 1 403.7222 -552.4731)" font-family="'Helvetica'" font-size="12.8539px">668</text>
		<text transform="matrix(1.0377 0 0 1 502.6465 -592.1064)" font-family="'Helvetica'" font-size="12.8539px">57</text>
		<text transform="matrix(1.0377 0 0 1 628.249 -563.1846)" font-family="'Helvetica'" font-size="12.8539px">139</text>
		<text transform="matrix(1.0377 0 0 1 724.9512 -626.3823)" font-family="'Helvetica'" font-size="12.8539px">1</text>
		<text transform="matrix(1.0377 0 0 1 605.0586 -658.6157)" font-family="'Helvetica'" font-size="12.8539px">33</text>
	</g>
	<g id="income_00000127031602204492213730000013908972687122372791_">
		<text transform="matrix(1.0377 0 0 1 339.832 -667.2285)" font-family="'Helvetica'" font-size="12.8539px">$81,667</text>
		<text transform="matrix(1.0377 0 0 1 442.8521 -691.7031)" font-family="'Helvetica'" font-size="12.8539px">$65,314</text>
		<text transform="matrix(1.0377 0 0 1 587.2139 -675.9517)" font-family="'Helvetica'" font-size="12.8539px">$54,390</text>
		<text transform="matrix(1.0377 0 0 1 703.9365 -643.3301)" font-family="'Helvetica'" font-size="12.8539px">$47,035</text>
		<text transform="matrix(1.0377 0 0 1 393.8042 -571.8057)" font-family="'Helvetica'" font-size="12.8539px">$76,316</text>
		<text transform="matrix(1.0377 0 0 1 487.6924 -610.2842)" font-family="'Helvetica'" font-size="12.8539px">$64,179</text>
		<text transform="matrix(1.0377 0 0 1 615.1533 -580.3652)" font-family="'Helvetica'" font-size="12.8539px">$52,481</text>
		<text transform="matrix(1.0377 0 0 1 501.8496 -517.8018)" font-family="'Helvetica'" font-size="12.8539px">$64,862</text>
		<text transform="matrix(1.0377 0 0 1 367.7563 -456.1997)" font-family="'Helvetica'" font-size="12.8539px">$70,262</text>
		<text transform="matrix(1.0377 0 0 1 549.0078 -436.9644)" font-family="'Helvetica'" font-size="12.8539px">$62,737</text>
		<text transform="matrix(1.0377 0 0 1 402.519 -312.8838)" font-family="'Helvetica'" font-size="12.8539px">$57,176</text>
		<text transform="matrix(1.0377 0 0 1 522.5635 -348.2324)" font-family="'Helvetica'" font-size="12.8539px">$61,503</text>
		<text transform="matrix(1.0377 0 0 1 385.0591 -180.8174)" font-family="'Helvetica'" font-size="12.8539px">$58,200</text>
		<text transform="matrix(1.0377 0 0 1 473.6636 -139.1582)" font-family="'Helvetica'" font-size="12.8539px">$54,188</text>
	</g>
	<g id="arrow-2_00000072282157335963403150000016703191520484285324_">
		<path fill="none" stroke="#C1272D" stroke-width="2" stroke-miterlimit="10" d="M301.619,179.961
			c-2.869,11.112-83.897-10.238-113.71-26.219"/>
		<g>
			<path fill="#C1272D" d="M190.844,155.351l-1.247,7.573l-0.267-0.033l-5.344-10.189c-2.292-3.049-4.584-6.098-6.875-9.147
				c3.36,1.806,6.719,3.612,10.08,5.417l10.878,3.746l0.097,0.231L190.844,155.351z"/>
		</g>
	</g>
	
		<ellipse id="circle-2_00000075130253279704626000000010575244711231371452_" fill="none" stroke="#C1272D" stroke-width="2" stroke-miterlimit="10" cx="351.856" cy="178.375" rx="39.454" ry="8.812"/>
	
		<ellipse id="circle-1_00000091000247075935895360000004070580741593076668_" fill="none" stroke="#C1272D" stroke-width="2" stroke-miterlimit="10" cx="351.856" cy="197.035" rx="39.454" ry="8.812"/>
	<g id="arrow-1_00000038407577614353362460000007734643152013453753_">
		<path fill="none" stroke="#C1272D" stroke-width="2" stroke-miterlimit="10" d="M190.699,245.741
			c26.194-24.517,110.981-56.937,117.802-38.87"/>
		<g>
			<path fill="#C1272D" d="M193.36,243.099l-4.061-7.392l-0.264,0.132l-1.813,12.512c-1.26,3.998-2.521,7.995-3.781,11.993
				c2.822-3.1,5.643-6.199,8.465-9.299l9.904-7.859l0.016-0.275L193.36,243.099z"/>
		</g>
	</g>
</g>
<style>
#g-vermont-map-NEW-Artboard_11-interactions-img rect, #g-vermont-map-NEW-Artboard_11-interactions-img circle, #g-vermont-map-NEW-Artboard_11-interactions-img path, #g-vermont-map-NEW-Artboard_11-interactions-img line, #g-vermont-map-NEW-Artboard_11-interactions-img polyline, #g-vermont-map-NEW-Artboard_11-interactions-img polygon { vector-effect: non-scaling-stroke; }
</style>
</svg>

