<?xml version="1.0" encoding="utf-8"?>
<!-- Generator: Adobe Illustrator 25.0.0, SVG Export Plug-In . SVG Version: 6.00 Build 0)  -->
<svg version="1.1" xmlns="http://www.w3.org/2000/svg" xmlns:xlink="http://www.w3.org/1999/xlink" x="0px" y="0px"
	 viewBox="0 0 649.4 611.3" style="enable-background:new 0 0 649.4 611.3;" xml:space="preserve">
<style type="text/css">
	.st0{fill-rule:evenodd;clip-rule:evenodd;fill:#CECDCC;}
	.st1{fill:none;}
	.st2{fill:#A00404;}
	.st3{fill:#838484;}
	.st4{fill:#181818;}
	.st5{font-family:'OpenSans';}
	.st6{font-size:12px;}
	.st7{fill:none;stroke:#898989;stroke-width:3;stroke-linecap:round;stroke-linejoin:round;stroke-miterlimit:10;}
	.st8{fill:#161616;}
	.st9{font-size:14px;}
	.st10{fill:#7C0404;}
</style>
<g id="Layer_2">
	<rect x="-10.9" y="-38.5" class="st0" width="679.2" height="679.2"/>
</g>
<g id="exportSvg">
	<rect x="21.3" y="12.3" class="st1" width="600" height="599"/>
	<path class="st2" d="M21.3,14.1"/>
	<path class="st2" d="M35.3,28.1"/>
	<path class="st3" d="M105,28.1"/>
	<path class="st3" d="M91,14.1"/>
	<text transform="matrix(1 0 0 1 20.2856 56.0848)" class="st4 st5 st6">1922</text>
	<rect x="89.3" y="41.1" class="st2" width="10.3" height="20"/>
	<rect x="89.3" y="41.1" class="st3" width="0" height="20"/>
	<text transform="matrix(1 0 0 1 20.2856 80.0848)" class="st4 st5 st6">1922-1927</text>
	<rect x="89.3" y="65.1" class="st2" width="0" height="20"/>
	<rect x="89.3" y="65.1" class="st3" width="0" height="20"/>
	<text transform="matrix(1 0 0 1 20.2856 104.0848)" class="st4 st5 st6">1927-1932</text>
	<rect x="89.3" y="89.1" class="st2" width="0" height="20"/>
	<rect x="89.3" y="89.1" class="st3" width="0" height="20"/>
	<text transform="matrix(1 0 0 1 20.2856 128.0848)" class="st4 st5 st6">1932-1937</text>
	<rect x="89.3" y="113.1" class="st2" width="2.2" height="20"/>
	<rect x="91.5" y="113.1" class="st3" width="5.9" height="20"/>
	<text transform="matrix(1 0 0 1 20.2856 152.0848)" class="st4 st5 st6">1937-1942</text>
	<rect x="89.3" y="137.1" class="st2" width="33.1" height="20"/>
	<rect x="122.4" y="137.1" class="st3" width="11" height="20"/>
	<text transform="matrix(1 0 0 1 20.2856 176.0848)" class="st4 st5 st6">1942-1947</text>
	<rect x="89.3" y="161.1" class="st2" width="195.6" height="20"/>
	<rect x="284.9" y="161.1" class="st3" width="39" height="20"/>
	<text transform="matrix(1 0 0 1 20.2856 200.0848)" class="st4 st5 st6">1947-1952</text>
	<rect x="89.3" y="185.1" class="st2" width="87.5" height="20"/>
	<rect x="176.8" y="185.1" class="st3" width="72.1" height="20"/>
	<text transform="matrix(1 0 0 1 20.2856 224.0848)" class="st4 st5 st6">1952-1957</text>
	<rect x="89.3" y="209.1" class="st2" width="7.4" height="20"/>
	<rect x="96.6" y="209.1" class="st3" width="5.9" height="20"/>
	<text transform="matrix(1 0 0 1 20.2856 248.0848)" class="st4 st5 st6">1957-1962</text>
	<rect x="89.3" y="233.1" class="st2" width="21.3" height="20"/>
	<rect x="89.3" y="233.1" class="st3" width="0" height="20"/>
	<text transform="matrix(1 0 0 1 20.2856 272.0848)" class="st4 st5 st6">1962-1967</text>
	<rect x="89.3" y="257.1" class="st2" width="14.7" height="20"/>
	<rect x="89.3" y="257.1" class="st3" width="0" height="20"/>
	<text transform="matrix(1 0 0 1 20.2856 296.0848)" class="st4 st5 st6">1967-1972</text>
	<rect x="89.3" y="281.1" class="st2" width="0" height="20"/>
	<rect x="89.3" y="281.1" class="st3" width="0" height="20"/>
	<text transform="matrix(1 0 0 1 20.2856 320.0848)" class="st4 st5 st6">1972-1977</text>
	<rect x="89.3" y="305.1" class="st2" width="50.8" height="20"/>
	<rect x="89.3" y="305.1" class="st3" width="0" height="20"/>
	<text transform="matrix(1 0 0 1 20.2856 344.0848)" class="st4 st5 st6">1977-1982</text>
	<rect x="89.3" y="329.1" class="st2" width="119.9" height="20"/>
	<rect x="209.1" y="329.1" class="st3" width="32.4" height="20"/>
	<text transform="matrix(1 0 0 1 20.2856 368.0848)" class="st4 st5 st6">1982-1987</text>
	<rect x="89.3" y="353.1" class="st2" width="40.5" height="20"/>
	<rect x="129.7" y="353.1" class="st3" width="100" height="20"/>
	<text transform="matrix(1 0 0 1 20.2856 392.0848)" class="st4 st5 st6">1987-1992</text>
	<rect x="89.3" y="377.1" class="st2" width="424.4" height="20"/>
	<rect x="513.6" y="377.1" class="st3" width="106.7" height="20"/>
	<text transform="matrix(1 0 0 1 20.2856 416.0848)" class="st4 st5 st6">1992-1997</text>
	<rect x="89.3" y="401.1" class="st2" width="197.1" height="20"/>
	<rect x="286.4" y="401.1" class="st3" width="200.8" height="20"/>
	<text transform="matrix(1 0 0 1 20.2856 440.0848)" class="st4 st5 st6">1997-2002</text>
	<rect x="89.3" y="425.1" class="st2" width="158.9" height="20"/>
	<rect x="248.1" y="425.1" class="st3" width="104.5" height="20"/>
	<text transform="matrix(1 0 0 1 20.2856 464.0848)" class="st4 st5 st6">2002-2007</text>
	<rect x="89.3" y="449.1" class="st2" width="39" height="20"/>
	<rect x="89.3" y="449.1" class="st3" width="0" height="20"/>
	<text transform="matrix(1 0 0 1 20.2856 488.0848)" class="st4 st5 st6">2007-2012</text>
	<rect x="89.3" y="473.1" class="st2" width="33.8" height="20"/>
	<rect x="123.1" y="473.1" class="st3" width="111.1" height="20"/>
	<text transform="matrix(1 0 0 1 20.2856 512.0848)" class="st4 st5 st6">2012-2017</text>
	<rect x="89.3" y="497.1" class="st2" width="3.7" height="20"/>
	<rect x="92.9" y="497.1" class="st3" width="3.7" height="20"/>
	<text transform="matrix(1 0 0 1 20.2856 536.0848)" class="st4 st5 st6">2017-2022</text>
	<rect x="89.3" y="521.1" class="st2" width="97.1" height="20"/>
	<rect x="89.3" y="521.1" class="st3" width="0" height="20"/>
	<polyline class="st7" points="123.2,336.9 123.4,341.2 123.5,345.4 123.5,349.7 123.8,354 124.4,358.2 124.5,362.5 124.9,366.8 
		125.4,371 125.3,375.3 126.1,379.6 127.6,383.9 129.4,388.1 131.1,392.4 134.1,396.7 130.1,400.9 133.8,405.2 135.8,409.5 
		141,413.7 143.6,418 147.8,422.3 154.4,426.5 157.2,430.8 157.6,435.1 158.2,439.4 159.9,443.6 164,447.9 171.1,452.2 178.5,456.4 
		180,460.7 202.5,465 213.8,469.2 227.9,473.5 245,477.8 249.9,482 275.2,486.3 300,490.6 317.2,494.9 334.8,499.1 357.6,503.4 
		383,507.7 413.1,511.9 447.6,516.2 489.7,520.5 529.8,524.7 561.9,529 400.5,533.3 	"/>
	<text transform="matrix(1 0 0 0.97 337.8723 562.1692)" class="st8 st5 st9">660 millions passengers carried in 2019</text>
	<rect x="425.2" y="488.9" class="st1" width="30.7" height="0.1"/>
	<rect x="89.3" y="401.1" class="st10" width="116.9" height="20"/>
</g>
</svg>
