<?xml version="1.0" encoding="utf-8"?>
<!-- Generator: Adobe Illustrator 25.0.0, SVG Export Plug-In . SVG Version: 6.00 Build 0)  -->
<svg version="1.2" baseProfile="tiny" id="g-map-Artboard_2-interactive-img" xmlns="http://www.w3.org/2000/svg" xmlns:xlink="http://www.w3.org/1999/xlink"
	 x="0px" y="0px" viewBox="0 0 360.564 640.815" overflow="visible" xml:space="preserve">
<g>
	<g id="dot_1_">
		<circle fill-rule="evenodd" fill="#FFF5F0" cx="252.02" cy="264.383" r="3.116"/>
		
			<ellipse transform="matrix(0.9239 -0.3827 0.3827 0.9239 -103.1957 127.7712)" fill-rule="evenodd" fill="#FC9272" cx="269.577" cy="323.286" rx="3.116" ry="3.116"/>
		<circle fill-rule="evenodd" fill="#FFF5F0" cx="256.943" cy="341.42" r="3.116"/>
		<circle fill-rule="evenodd" fill="#FEE0D2" cx="235.422" cy="353.012" r="3.116"/>
		<circle fill-rule="evenodd" fill="#FFF5F0" cx="281.296" cy="248.113" r="3.116"/>
		<circle fill-rule="evenodd" fill="#FFF5F0" cx="92.609" cy="214.154" r="3.116"/>
		<circle fill-rule="evenodd" fill="#FFF5F0" cx="263.356" cy="332.763" r="3.116"/>
		<circle fill-rule="evenodd" fill="#FFF5F0" cx="263.356" cy="332.763" r="3.116"/>
		
			<ellipse transform="matrix(0.8507 -0.5257 0.5257 0.8507 -104.811 139.9899)" fill-rule="evenodd" fill="#FC9272" cx="193.987" cy="254.47" rx="3.116" ry="3.116"/>
		<circle fill-rule="evenodd" fill="#A50F15" cx="214.898" cy="337.079" r="3.116"/>
		<circle fill-rule="evenodd" fill="#FFF5F0" cx="184.538" cy="275.847" r="3.116"/>
		<circle fill-rule="evenodd" fill="#CB181D" cx="260.502" cy="295.598" r="3.116"/>
		<circle fill-rule="evenodd" fill="#FCBBA1" cx="231.074" cy="348.125" r="3.116"/>
		<circle fill-rule="evenodd" fill="#FB6A4A" cx="231.074" cy="348.125" r="3.116"/>
		<circle fill-rule="evenodd" fill="#FEE0D2" cx="231.074" cy="348.125" r="3.116"/>
		<circle fill-rule="evenodd" fill="#FEE0D2" cx="274.094" cy="301.047" r="3.116"/>
		<circle fill-rule="evenodd" fill="#FCBBA1" cx="221.489" cy="269.509" r="3.116"/>
		<circle fill-rule="evenodd" fill="#CB181D" cx="193.891" cy="311.685" r="3.116"/>
		
			<ellipse transform="matrix(0.8507 -0.5257 0.5257 0.8507 -113.4412 134.0105)" fill-rule="evenodd" fill="#FFF5F0" cx="179.148" cy="266.67" rx="3.116" ry="3.116"/>
		<circle fill-rule="evenodd" fill="#FCBBA1" cx="252.02" cy="264.383" r="3.116"/>
		<circle fill-rule="evenodd" fill="#FFF5F0" cx="214.898" cy="337.291" r="3.116"/>
		
			<ellipse transform="matrix(0.8507 -0.5257 0.5257 0.8507 -152.604 131.944)" fill-rule="evenodd" fill="#CB181D" cx="155.929" cy="334.566" rx="3.116" ry="3.116"/>
		
			<ellipse transform="matrix(0.2298 -0.9732 0.9732 0.2298 -131.1936 473.2967)" fill-rule="evenodd" fill="#FEE0D2" cx="233.421" cy="319.534" rx="3.116" ry="3.116"/>
		
			<ellipse transform="matrix(0.2298 -0.9732 0.9732 0.2298 -131.1936 473.2967)" fill-rule="evenodd" fill="#FCBBA1" cx="233.421" cy="319.534" rx="3.116" ry="3.116"/>
		<circle fill-rule="evenodd" fill="#FEE0D2" cx="195.628" cy="329.338" r="3.116"/>
		<circle fill-rule="evenodd" fill="#FEE0D2" cx="174.269" cy="338.431" r="3.116"/>
		
			<ellipse transform="matrix(0.2298 -0.9732 0.9732 0.2298 -92.9689 437.9151)" fill-rule="evenodd" fill="#FFF5F0" cx="230.18" cy="277.693" rx="3.116" ry="3.116"/>
		<circle fill-rule="evenodd" fill="#FFF5F0" cx="207.738" cy="281.46" r="3.116"/>
		<circle fill-rule="evenodd" fill="#FFF5F0" cx="215.212" cy="367.661" r="3.116"/>
		<circle fill-rule="evenodd" fill="#FFF5F0" cx="215.194" cy="367.506" r="3.116"/>
		
			<ellipse transform="matrix(0.5257 -0.8507 0.8507 0.5257 -144.0655 280.8625)" fill-rule="evenodd" fill="#FCBBA1" cx="179.846" cy="269.63" rx="3.116" ry="3.116"/>
		<circle fill-rule="evenodd" fill="#FFF5F0" cx="272.951" cy="298.095" r="3.116"/>
		<circle fill-rule="evenodd" fill="#FEE0D2" cx="268.995" cy="269.654" r="3.116"/>
		<circle fill-rule="evenodd" fill="#FEE0D2" cx="236.463" cy="354.142" r="3.116"/>
		
			<ellipse transform="matrix(0.1602 -0.9871 0.9871 0.1602 12.532 474.8784)" fill-rule="evenodd" fill="#FFF5F0" cx="285.342" cy="230.074" rx="3.116" ry="3.116"/>
		<circle fill-rule="evenodd" fill="#FEE0D2" cx="269.263" cy="347.718" r="3.116"/>
		<circle fill-rule="evenodd" fill="#FEE0D2" cx="194.648" cy="320.212" r="3.116"/>
		<circle fill-rule="evenodd" fill="#FCBBA1" cx="268.849" cy="269.361" r="3.116"/>
		<circle fill-rule="evenodd" fill="#FFF5F0" cx="274.085" cy="298.095" r="3.116"/>
		<circle fill-rule="evenodd" fill="#FEE0D2" cx="274.742" cy="301.208" r="3.116"/>
		<circle fill-rule="evenodd" fill="#FEE0D2" cx="274.085" cy="298.095" r="3.116"/>
		<circle fill-rule="evenodd" fill="#FEE0D2" cx="171.875" cy="321.369" r="3.116"/>
		
			<ellipse transform="matrix(0.5257 -0.8507 0.8507 0.5257 -140.9054 310.2032)" fill-rule="evenodd" fill="#FFF5F0" cx="207.739" cy="281.466" rx="3.116" ry="3.116"/>
		<circle fill-rule="evenodd" fill="#FFF5F0" cx="263.062" cy="317.124" r="3.116"/>
		
			<ellipse transform="matrix(0.8507 -0.5257 0.5257 0.8507 -146.577 105.3439)" fill-rule="evenodd" fill="#FFF5F0" cx="112.125" cy="310.658" rx="3.116" ry="3.116"/>
		<circle fill-rule="evenodd" fill="#FEE0D2" cx="131.194" cy="226.173" r="3.116"/>
		<circle fill-rule="evenodd" fill="#FFF5F0" cx="174.463" cy="338.73" r="3.116"/>
		<circle fill-rule="evenodd" fill="#FFF5F0" cx="243.717" cy="316.623" r="3.116"/>
		
			<ellipse transform="matrix(0.9239 -0.3827 0.3827 0.9239 -81.0963 121.0448)" fill-rule="evenodd" fill="#FFF5F0" cx="263.719" cy="264.372" rx="3.116" ry="3.116"/>
		<circle fill-rule="evenodd" fill="#FFF5F0" cx="182.678" cy="327.631" r="3.116"/>
		<circle fill-rule="evenodd" fill="#FFF5F0" cx="231.528" cy="353.247" r="3.116"/>
		<circle fill-rule="evenodd" fill="#FFF5F0" cx="238.376" cy="352.663" r="3.116"/>
		<circle fill-rule="evenodd" fill="#FFF5F0" cx="247.581" cy="244.393" r="3.116"/>
		
			<ellipse transform="matrix(0.9239 -0.3827 0.3827 0.9239 -101.2308 510.5724)" fill-rule="evenodd" fill="#A50F15" cx="1232.796" cy="509.747" rx="7.048" ry="7.048"/>
		<circle fill-rule="evenodd" fill="#FFF5F0" cx="1301.3" cy="339.642" r="7.048"/>
		
			<ellipse transform="matrix(0.9239 -0.3827 0.3827 0.9239 -73.9287 546.5605)" fill-rule="evenodd" fill="#FC9272" cx="1336.91" cy="459.113" rx="7.048" ry="7.048"/>
		
			<ellipse transform="matrix(0.1602 -0.9871 0.9871 0.1602 611.7489 1710.8113)" fill-rule="evenodd" fill="#FFF5F0" cx="1311.284" cy="495.893" rx="7.048" ry="7.048"/>
		<circle fill-rule="evenodd" fill="#FEE0D2" cx="1267.633" cy="519.405" r="7.048"/>
		<circle fill-rule="evenodd" fill="#FFF5F0" cx="1360.679" cy="306.642" r="7.048"/>
		
			<ellipse transform="matrix(0.1891 -0.982 0.982 0.1891 559.5533 1153.1259)" fill-rule="evenodd" fill="#FFF5F0" cx="977.97" cy="237.765" rx="7.048" ry="7.048"/>
		
			<ellipse transform="matrix(0.9239 -0.3827 0.3827 0.9239 -82.2451 543.1949)" fill-rule="evenodd" fill="#FFF5F0" cx="1324.292" cy="478.335" rx="7.048" ry="7.048"/>
		
			<ellipse transform="matrix(0.9239 -0.3827 0.3827 0.9239 -82.2451 543.1949)" fill-rule="evenodd" fill="#FFF5F0" cx="1324.292" cy="478.335" rx="7.048" ry="7.048"/>
		<circle fill-rule="evenodd" fill="#FC9272" cx="1183.593" cy="319.536" r="7.048"/>
		
			<ellipse transform="matrix(0.7071 -0.7071 0.7071 0.7071 84.4483 929.6631)" fill-rule="evenodd" fill="#FFF5F0" cx="1164.427" cy="362.893" rx="7.048" ry="7.048"/>
		<circle fill-rule="evenodd" fill="#CB181D" cx="1318.503" cy="402.955" r="7.048"/>
		<circle fill-rule="evenodd" fill="#FCBBA1" cx="1258.815" cy="509.494" r="7.048"/>
		<circle fill-rule="evenodd" fill="#FB6A4A" cx="1258.815" cy="509.494" r="7.048"/>
		<circle fill-rule="evenodd" fill="#FEE0D2" cx="1258.815" cy="509.494" r="7.048"/>
		
			<ellipse transform="matrix(0.2298 -0.9732 0.9732 0.2298 633.8742 1628.9492)" fill-rule="evenodd" fill="#FEE0D2" cx="1346.071" cy="414.007" rx="7.048" ry="7.048"/>
		<circle fill-rule="evenodd" fill="#FCBBA1" cx="1239.373" cy="350.038" r="7.048"/>
		<circle fill-rule="evenodd" fill="#CB181D" cx="1183.397" cy="435.583" r="7.048"/>
		<circle fill-rule="evenodd" fill="#FFF5F0" cx="1153.495" cy="344.281" r="7.048"/>
		<circle fill-rule="evenodd" fill="#FCBBA1" cx="1301.3" cy="339.642" r="7.048"/>
		<circle fill-rule="evenodd" fill="#FFF5F0" cx="1231.802" cy="488.845" r="7.048"/>
		
			<ellipse transform="matrix(0.2898 -0.9571 0.9571 0.2898 324.4727 1401.2472)" fill-rule="evenodd" fill="#CB181D" cx="1106.401" cy="481.993" rx="7.048" ry="7.048"/>
		
			<ellipse transform="matrix(0.7071 -0.7071 0.7071 0.7071 50.8326 1025.7253)" fill-rule="evenodd" fill="#FEE0D2" cx="1263.576" cy="451.502" rx="7.048" ry="7.048"/>
		
			<ellipse transform="matrix(0.7071 -0.7071 0.7071 0.7071 50.8326 1025.7253)" fill-rule="evenodd" fill="#FCBBA1" cx="1263.576" cy="451.502" rx="7.048" ry="7.048"/>
		
			<ellipse transform="matrix(0.9239 -0.3827 0.3827 0.9239 -90.0439 490.097)" fill-rule="evenodd" fill="#FEE0D2" cx="1186.921" cy="471.389" rx="7.048" ry="7.048"/>
		
			<ellipse transform="matrix(0.2298 -0.9732 0.9732 0.2298 404.1267 1490.2981)" fill-rule="evenodd" fill="#FEE0D2" cx="1143.599" cy="489.831" rx="7.048" ry="7.048"/>
		<circle fill-rule="evenodd" fill="#FFF5F0" cx="1257.002" cy="366.639" r="7.048"/>
		
			<ellipse transform="matrix(0.2298 -0.9732 0.9732 0.2298 568.8743 1467.3611)" fill-rule="evenodd" fill="#FFF5F0" cx="1211.483" cy="374.279" rx="7.048" ry="7.048"/>
		<circle fill-rule="evenodd" fill="#FFF5F0" cx="1226.643" cy="549.119" r="7.048"/>
		<circle fill-rule="evenodd" fill="#FFF5F0" cx="1226.607" cy="548.804" r="7.048"/>
		<circle fill-rule="evenodd" fill="#FCBBA1" cx="1154.91" cy="350.284" r="7.048"/>
		<circle fill-rule="evenodd" fill="#FFF5F0" cx="1343.753" cy="408.019" r="7.048"/>
		<circle fill-rule="evenodd" fill="#FEE0D2" cx="1335.729" cy="350.334" r="7.048"/>
		<circle fill-rule="evenodd" fill="#FEE0D2" cx="1269.744" cy="521.698" r="7.048"/>
		
			<ellipse transform="matrix(0.7071 -0.7071 0.7071 0.7071 209.9794 1047.0458)" fill-rule="evenodd" fill="#FFF5F0" cx="1368.886" cy="270.055" rx="7.048" ry="7.048"/>
		
			<ellipse transform="matrix(0.7071 -0.7071 0.7071 0.7071 31.7022 1093.8732)" fill-rule="evenodd" fill="#FEE0D2" cx="1336.273" cy="508.669" rx="7.048" ry="7.048"/>
		
			<ellipse transform="matrix(0.9239 -0.3827 0.3827 0.9239 -83.1118 487.9268)" fill-rule="evenodd" fill="#FEE0D2" cx="1184.932" cy="452.879" rx="7.048" ry="7.048"/>
		
			<ellipse transform="matrix(0.2298 -0.9732 0.9732 0.2298 688.2291 1569.0927)" fill-rule="evenodd" fill="#FCBBA1" cx="1335.432" cy="349.739" rx="7.048" ry="7.048"/>
		<circle fill-rule="evenodd" fill="#FFF5F0" cx="1346.053" cy="408.019" r="7.048"/>
		<circle fill-rule="evenodd" fill="#FEE0D2" cx="1347.386" cy="414.334" r="7.048"/>
		<circle fill-rule="evenodd" fill="#FEE0D2" cx="1346.053" cy="408.019" r="7.048"/>
		
			<ellipse transform="matrix(0.7071 -0.7071 0.7071 0.7071 11.6379 938.5452)" fill-rule="evenodd" fill="#FEE0D2" cx="1138.743" cy="455.224" rx="7.048" ry="7.048"/>
		<circle fill-rule="evenodd" fill="#FFF5F0" cx="1211.484" cy="374.291" r="7.048"/>
		
			<ellipse transform="matrix(0.9239 -0.3827 0.3827 0.9239 -70.152 540.5522)" fill-rule="evenodd" fill="#FFF5F0" cx="1323.695" cy="446.615" rx="7.048" ry="7.048"/>
		<circle fill-rule="evenodd" fill="#FFF5F0" cx="1017.554" cy="433.501" r="7.048"/>
		<circle fill-rule="evenodd" fill="#FEE0D2" cx="1056.231" cy="262.142" r="7.048"/>
		<circle fill-rule="evenodd" fill="#FFF5F0" cx="1150.178" cy="492.95" r="7.048"/>
		
			<ellipse transform="matrix(0.2298 -0.9732 0.9732 0.2298 555.6713 1593.3195)" fill-rule="evenodd" fill="#FFF5F0" cx="1284.459" cy="445.599" rx="7.048" ry="7.048"/>
		
			<ellipse transform="matrix(0.1602 -0.9871 0.9871 0.1602 777.5466 1593.1368)" fill-rule="evenodd" fill="#FFF5F0" cx="1325.027" cy="339.62" rx="7.048" ry="7.048"/>
		<circle fill-rule="evenodd" fill="#FFF5F0" cx="1160.656" cy="467.926" r="7.048"/>
		
			<ellipse transform="matrix(0.1602 -0.9871 0.9871 0.1602 544.7775 1680.0751)" fill-rule="evenodd" fill="#FFF5F0" cx="1259.735" cy="519.883" rx="7.048" ry="7.048"/>
		<circle fill-rule="evenodd" fill="#FFF5F0" cx="1273.625" cy="518.697" r="7.048"/>
		<circle fill-rule="evenodd" fill="#FFF5F0" cx="1292.296" cy="299.098" r="7.048"/>
		
			<ellipse transform="matrix(0.9239 -0.3827 0.3827 0.9239 -50.3113 491.1139)" fill-rule="evenodd" fill="#67000D" cx="1209.344" cy="372.023" rx="7.048" ry="7.048"/>
		
			<ellipse transform="matrix(0.1891 -0.982 0.982 0.1891 -107.6915 430.2855)" fill-rule="evenodd" fill="#67000D" cx="206.683" cy="280.348" rx="3.116" ry="3.116"/>
	</g>
	<g id="dot-2000_1_">
		<circle fill-rule="evenodd" fill="#FFF5F0" cx="1346.998" cy="419.271" r="7.048"/>
		<circle fill-rule="evenodd" fill="#FFF5F0" cx="895.352" cy="337.157" r="7.048"/>
		
			<ellipse transform="matrix(0.1602 -0.9871 0.9871 0.1602 1024.0698 1561.3547)" fill-rule="evenodd" fill="#FCBBA1" cx="1429.611" cy="178.852" rx="7.048" ry="7.048"/>
		<circle fill-rule="evenodd" fill="#FCBBA1" cx="1222.877" cy="287.944" r="7.048"/>
		
			<ellipse transform="matrix(0.7071 -0.7071 0.7071 0.7071 175.0197 1045.1511)" fill-rule="evenodd" fill="#CB181D" cx="1349.119" cy="311.308" rx="7.048" ry="7.048"/>
		<circle fill-rule="evenodd" fill="#FCBBA1" cx="1269.868" cy="420.96" r="7.048"/>
		<circle fill-rule="evenodd" fill="#A50F15" cx="1224.754" cy="486.826" r="7.048"/>
		<circle fill-rule="evenodd" fill="#FFF5F0" cx="1301.3" cy="339.642" r="7.048"/>
		<circle fill-rule="evenodd" fill="#A50F15" cx="218.246" cy="348.25" r="3.116"/>
		
			<ellipse transform="matrix(0.9239 -0.3827 0.3827 0.9239 -95.2998 128.1794)" fill-rule="evenodd" fill="#FFF5F0" cx="274.551" cy="303.642" rx="3.116" ry="3.116"/>
		<circle fill-rule="evenodd" fill="#FFF5F0" cx="51.875" cy="263.158" r="3.116"/>
		<path fill-rule="evenodd" fill="#FCBBA1" d="M318.398,185.108c0,1.721-1.395,3.116-3.116,3.116s-3.116-1.395-3.116-3.116
			c0-1.721,1.395-3.116,3.116-3.116S318.398,183.388,318.398,185.108z"/>
		
			<ellipse transform="matrix(0.7071 -0.7071 0.7071 0.7071 -106.4333 220.8356)" fill-rule="evenodd" fill="#FCBBA1" cx="213.355" cy="238.894" rx="3.116" ry="3.116"/>
		<circle fill-rule="evenodd" fill="#CB181D" cx="275.597" cy="250.413" r="3.116"/>
		<circle fill-rule="evenodd" fill="#FCBBA1" cx="236.524" cy="304.475" r="3.116"/>
		<circle fill-rule="evenodd" fill="#FFF5F0" cx="252.02" cy="264.383" r="3.116"/>
	</g>
	<g id="path-4_1_">
		<path fill="none" stroke="#FCFCFC" stroke-miterlimit="10" d="M193.891,185.108c16.834,7.364,21.891,29.171,19.577,53.648"/>
		<g>
			<polygon fill="#FCFCFC" points="211.87,236.655 213.45,238.459 215.253,236.877 215.158,238.314 213.355,239.894 
				211.775,238.091 			"/>
		</g>
	</g>
	<g id="path-6_1_">
		<path fill="none" stroke="#FFFFFF" stroke-miterlimit="10" d="M207.53,281.154c30.348,23.617,57.528,85.544,57.027,107.873"/>
		<g>
			<polygon fill="#FFFFFF" points="208.024,283.736 207.749,281.354 210.132,281.081 209.004,280.186 206.622,280.46 
				206.896,282.842 			"/>
		</g>
	</g>
	<g id="path-2_1_">
		<g>
			<path fill="#020202" d="M236.433,350.438c-1.149-2.237-2.284-4.421-3.391-6.62c-0.344-0.683-0.708-1.381-0.891-2.116
				c-0.597-2.407,1.105-4.936,3.505-5.312c2.608-0.408,4.934,1.357,5.18,3.918c0.082,0.858-0.045,1.675-0.432,2.437
				c-1.283,2.521-2.58,5.035-3.872,7.551C236.515,350.328,236.49,350.357,236.433,350.438z M236.146,340.996
				c0.11,0.538,0.099,0.96-0.44,1.187c-0.091,0.038-0.115,0.238-0.17,0.364c0.023,0.028,0.047,0.056,0.07,0.083
				c0.561-0.39,1.126-0.394,1.731-0.055c-0.047-0.197-0.111-0.361-0.229-0.45c-0.454-0.341-0.507-0.478-0.332-1.119
				c0.585,0.221,1.168,0.441,1.754,0.662c0.081-0.296,0.012-0.478-0.216-0.636c-0.331-0.228-0.614-0.531-0.957-0.738
				c-0.525-0.316-0.748-0.728-0.663-1.349c0.03-0.221-0.094-0.464-0.148-0.697c-0.056,0.001-0.112,0.001-0.167,0.002
				c-0.06,0.146-0.145,0.288-0.175,0.44c-0.032,0.164-0.038,0.342-0.012,0.508c0.067,0.427-0.103,0.702-0.452,0.937
				c-0.398,0.268-0.75,0.604-1.14,0.884c-0.232,0.166-0.333,0.347-0.229,0.648C234.956,341.446,235.542,341.225,236.146,340.996z"/>
		</g>
		<line stroke="#C4C4C4" stroke-width="2" stroke-miterlimit="10" x1="182.62" y1="337.958" x2="221.314" y2="346.743"/>
		<g>
			<line x1="221.138" y1="346.703" x2="236.337" y2="350.154"/>
			<g>
				
					<line fill="none" stroke="#C4C4C4" stroke-width="2" stroke-miterlimit="10" stroke-dasharray="5.6693,2.8346,1.4173,2.8346" x1="221.138" y1="346.703" x2="235.223" y2="349.901"/>
				<g>
					<polygon fill="#C4C4C4" points="232.905,351.114 234.934,349.836 233.656,347.807 235.059,348.126 236.337,350.154 
						234.309,351.432 					"/>
				</g>
			</g>
		</g>
		<ellipse fill-rule="evenodd" fill="#A50F15" cx="221.314" cy="346.142" rx="3.135" ry="3.16"/>
		
			<ellipse fill-rule="evenodd" fill="none" stroke="#F9F9F9" stroke-miterlimit="10" cx="221.314" cy="346.142" rx="1.572" ry="1.585"/>
		<g id="arrow-mobile_1_">
			<path fill="none" stroke="#F9F9F9" stroke-miterlimit="10" d="M218.628,346.399c-48.256,11.301-78.618,38.693-90.55,82.658"/>
			<g>
				<polygon fill="#F9F9F9" points="216.286,345.273 218.348,346.497 217.122,348.558 218.517,348.203 219.742,346.142 
					217.681,344.917 				"/>
			</g>
		</g>
		<g>
			<path fill="#595858" d="M182.664,338.313c-1.176-2.295-2.339-4.534-3.472-6.789c-0.36-0.716-0.747-1.445-0.938-2.215
				c-0.616-2.48,1.137-5.085,3.612-5.474c2.686-0.422,5.084,1.398,5.338,4.037c0.083,0.869-0.037,1.701-0.429,2.474
				c-1.326,2.611-2.669,5.214-4.006,7.819C182.75,338.199,182.724,338.228,182.664,338.313z M182.369,328.581
				c0.115,0.555,0.102,0.99-0.454,1.225c-0.093,0.039-0.117,0.246-0.21,0.46c0.399-0.146,0.684-0.332,0.969-0.332
				c0.293,0.001,0.585,0.185,0.877,0.289c0.026-0.022,0.051-0.045,0.077-0.067c-0.067-0.126-0.105-0.326-0.206-0.367
				c-0.577-0.236-0.518-0.687-0.439-1.209c0.625,0.236,1.232,0.464,1.838,0.692c0.105-0.301,0.016-0.495-0.231-0.663
				c-0.299-0.203-0.554-0.475-0.86-0.664c-0.599-0.368-0.928-0.833-0.796-1.582c0.034-0.191-0.111-0.414-0.199-0.704
				c-0.438,0.459-0.31,0.898-0.314,1.3c-0.003,0.253-0.063,0.422-0.273,0.576c-0.476,0.349-0.921,0.741-1.398,1.089
				c-0.242,0.177-0.307,0.365-0.205,0.647C181.158,329.04,181.753,328.815,182.369,328.581z"/>
		</g>
	</g>
</g>
<style>
#g-map-Artboard_2-interactive-img rect, #g-map-Artboard_2-interactive-img circle, #g-map-Artboard_2-interactive-img path, #g-map-Artboard_2-interactive-img line, #g-map-Artboard_2-interactive-img polyline, #g-map-Artboard_2-interactive-img polygon { vector-effect: non-scaling-stroke; }
</style>
</svg>

