<?xml version="1.0" encoding="utf-8"?>
<!-- Generator: Adobe Illustrator 25.0.0, SVG Export Plug-In . SVG Version: 6.00 Build 0)  -->
<svg version="1.2" baseProfile="tiny" id="g-map-Artboard_1-interactive-img" xmlns="http://www.w3.org/2000/svg" xmlns:xlink="http://www.w3.org/1999/xlink"
	 x="0px" y="0px" viewBox="0 0 963.658 601.617" overflow="visible" xml:space="preserve">
<g>
	<g id="dot_1_">
		<circle fill-rule="evenodd" fill="#FFF5F0" cx="-457.414" cy="225.185" r="3.116"/>
		
			<ellipse transform="matrix(0.9239 -0.3827 0.3827 0.9239 -142.1977 -146.7012)" fill-rule="evenodd" fill="#FC9272" cx="-439.858" cy="284.088" rx="3.116" ry="3.116"/>
		<circle fill-rule="evenodd" fill="#FFF5F0" cx="-452.492" cy="302.222" r="3.116"/>
		<circle fill-rule="evenodd" fill="#FEE0D2" cx="-474.013" cy="313.814" r="3.116"/>
		<circle fill-rule="evenodd" fill="#FFF5F0" cx="-428.139" cy="208.915" r="3.116"/>
		<circle fill-rule="evenodd" fill="#FFF5F0" cx="-616.826" cy="174.957" r="3.116"/>
		<circle fill-rule="evenodd" fill="#FFF5F0" cx="-446.079" cy="293.565" r="3.116"/>
		<circle fill-rule="evenodd" fill="#FFF5F0" cx="-446.079" cy="293.565" r="3.116"/>
		
			<ellipse transform="matrix(0.8507 -0.5257 0.5257 0.8507 -190.157 -238.8362)" fill-rule="evenodd" fill="#FC9272" cx="-515.448" cy="215.272" rx="3.116" ry="3.116"/>
		<circle fill-rule="evenodd" fill="#A50F15" cx="-494.537" cy="297.881" r="3.116"/>
		<circle fill-rule="evenodd" fill="#FFF5F0" cx="-524.897" cy="236.649" r="3.116"/>
		<circle fill-rule="evenodd" fill="#CB181D" cx="-448.933" cy="256.4" r="3.116"/>
		<circle fill-rule="evenodd" fill="#FCBBA1" cx="-478.361" cy="308.927" r="3.116"/>
		<circle fill-rule="evenodd" fill="#FB6A4A" cx="-478.361" cy="308.927" r="3.116"/>
		<circle fill-rule="evenodd" fill="#FEE0D2" cx="-478.361" cy="308.927" r="3.116"/>
		<circle fill-rule="evenodd" fill="#FEE0D2" cx="-435.341" cy="261.849" r="3.116"/>
		<circle fill-rule="evenodd" fill="#FCBBA1" cx="-487.946" cy="230.311" r="3.116"/>
		<circle fill-rule="evenodd" fill="#CB181D" cx="-515.544" cy="272.487" r="3.116"/>
		
			<ellipse transform="matrix(0.8507 -0.5257 0.5257 0.8507 -198.7872 -244.8155)" fill-rule="evenodd" fill="#FFF5F0" cx="-530.287" cy="227.472" rx="3.116" ry="3.116"/>
		<circle fill-rule="evenodd" fill="#FCBBA1" cx="-457.414" cy="225.185" r="3.116"/>
		<circle fill-rule="evenodd" fill="#FFF5F0" cx="-494.537" cy="298.093" r="3.116"/>
		
			<ellipse transform="matrix(0.8507 -0.5257 0.5257 0.8507 -237.9499 -246.882)" fill-rule="evenodd" fill="#CB181D" cx="-553.506" cy="295.369" rx="3.116" ry="3.116"/>
		
			<ellipse transform="matrix(0.2298 -0.9732 0.9732 0.2298 -639.484 -247.3519)" fill-rule="evenodd" fill="#FEE0D2" cx="-476.013" cy="280.336" rx="3.116" ry="3.116"/>
		
			<ellipse transform="matrix(0.2298 -0.9732 0.9732 0.2298 -639.484 -247.3519)" fill-rule="evenodd" fill="#FCBBA1" cx="-476.013" cy="280.336" rx="3.116" ry="3.116"/>
		<circle fill-rule="evenodd" fill="#FEE0D2" cx="-513.807" cy="290.141" r="3.116"/>
		<circle fill-rule="evenodd" fill="#FEE0D2" cx="-535.166" cy="299.233" r="3.116"/>
		
			<ellipse transform="matrix(0.2298 -0.9732 0.9732 0.2298 -601.2604 -282.7338)" fill-rule="evenodd" fill="#FFF5F0" cx="-479.255" cy="238.495" rx="3.116" ry="3.116"/>
		<circle fill-rule="evenodd" fill="#FFF5F0" cx="-501.697" cy="242.262" r="3.116"/>
		<circle fill-rule="evenodd" fill="#FFF5F0" cx="-494.223" cy="328.464" r="3.116"/>
		<circle fill-rule="evenodd" fill="#FFF5F0" cx="-494.241" cy="328.309" r="3.116"/>
		
			<ellipse transform="matrix(0.5257 -0.8507 0.8507 0.5257 -447.1841 -341.2086)" fill-rule="evenodd" fill="#FCBBA1" cx="-529.589" cy="230.432" rx="3.116" ry="3.116"/>
		<circle fill-rule="evenodd" fill="#FFF5F0" cx="-436.484" cy="258.897" r="3.116"/>
		<circle fill-rule="evenodd" fill="#FEE0D2" cx="-440.44" cy="230.457" r="3.116"/>
		<circle fill-rule="evenodd" fill="#FEE0D2" cx="-472.972" cy="314.944" r="3.116"/>
		
			<ellipse transform="matrix(0.1602 -0.9871 0.9871 0.1602 -544.5722 -258.3148)" fill-rule="evenodd" fill="#FFF5F0" cx="-424.092" cy="190.877" rx="3.116" ry="3.116"/>
		<circle fill-rule="evenodd" fill="#FEE0D2" cx="-440.172" cy="308.521" r="3.116"/>
		<circle fill-rule="evenodd" fill="#FEE0D2" cx="-514.787" cy="281.015" r="3.116"/>
		<circle fill-rule="evenodd" fill="#FCBBA1" cx="-440.586" cy="230.163" r="3.116"/>
		<circle fill-rule="evenodd" fill="#FFF5F0" cx="-435.35" cy="258.897" r="3.116"/>
		<circle fill-rule="evenodd" fill="#FEE0D2" cx="-434.693" cy="262.011" r="3.116"/>
		<circle fill-rule="evenodd" fill="#FEE0D2" cx="-435.35" cy="258.897" r="3.116"/>
		<circle fill-rule="evenodd" fill="#FEE0D2" cx="-537.56" cy="282.171" r="3.116"/>
		
			<ellipse transform="matrix(0.5257 -0.8507 0.8507 0.5257 -444.024 -311.868)" fill-rule="evenodd" fill="#FFF5F0" cx="-501.696" cy="242.268" rx="3.116" ry="3.116"/>
		<circle fill-rule="evenodd" fill="#FFF5F0" cx="-446.373" cy="277.926" r="3.116"/>
		
			<ellipse transform="matrix(0.8507 -0.5257 0.5257 0.8507 -231.923 -273.4821)" fill-rule="evenodd" fill="#FFF5F0" cx="-597.31" cy="271.461" rx="3.116" ry="3.116"/>
		<circle fill-rule="evenodd" fill="#FEE0D2" cx="-578.241" cy="186.975" r="3.116"/>
		<circle fill-rule="evenodd" fill="#FFF5F0" cx="-534.972" cy="299.532" r="3.116"/>
		<circle fill-rule="evenodd" fill="#FFF5F0" cx="-465.717" cy="277.425" r="3.116"/>
		
			<ellipse transform="matrix(0.9239 -0.3827 0.3827 0.9239 -120.0983 -153.4276)" fill-rule="evenodd" fill="#FFF5F0" cx="-445.716" cy="225.174" rx="3.116" ry="3.116"/>
		<circle fill-rule="evenodd" fill="#FFF5F0" cx="-526.756" cy="288.433" r="3.116"/>
		<circle fill-rule="evenodd" fill="#FFF5F0" cx="-477.907" cy="314.05" r="3.116"/>
		<circle fill-rule="evenodd" fill="#FFF5F0" cx="-471.059" cy="313.465" r="3.116"/>
		<circle fill-rule="evenodd" fill="#FFF5F0" cx="-461.854" cy="205.196" r="3.116"/>
		
			<ellipse transform="matrix(0.9239 -0.3827 0.3827 0.9239 -140.2329 236.0999)" fill-rule="evenodd" fill="#A50F15" cx="523.361" cy="470.55" rx="7.048" ry="7.048"/>
		<circle fill-rule="evenodd" fill="#FFF5F0" cx="591.865" cy="300.445" r="7.048"/>
		
			<ellipse transform="matrix(0.9239 -0.3827 0.3827 0.9239 -112.9308 272.088)" fill-rule="evenodd" fill="#FC9272" cx="627.475" cy="419.915" rx="7.048" ry="7.048"/>
		
			<ellipse transform="matrix(0.1602 -0.9871 0.9871 0.1602 54.6447 977.6181)" fill-rule="evenodd" fill="#FFF5F0" cx="601.849" cy="456.695" rx="7.048" ry="7.048"/>
		<circle fill-rule="evenodd" fill="#FEE0D2" cx="558.198" cy="480.208" r="7.048"/>
		<circle fill-rule="evenodd" fill="#FFF5F0" cx="651.244" cy="267.444" r="7.048"/>
		
			<ellipse transform="matrix(0.1891 -0.982 0.982 0.1891 22.7687 424.7066)" fill-rule="evenodd" fill="#FFF5F0" cx="268.535" cy="198.567" rx="7.048" ry="7.048"/>
		
			<ellipse transform="matrix(0.9239 -0.3827 0.3827 0.9239 -121.2472 268.7224)" fill-rule="evenodd" fill="#FFF5F0" cx="614.857" cy="439.137" rx="7.048" ry="7.048"/>
		
			<ellipse transform="matrix(0.9239 -0.3827 0.3827 0.9239 -121.2472 268.7224)" fill-rule="evenodd" fill="#FFF5F0" cx="614.857" cy="439.137" rx="7.048" ry="7.048"/>
		<circle fill-rule="evenodd" fill="#FC9272" cx="474.158" cy="280.339" r="7.048"/>
		
			<ellipse transform="matrix(0.7071 -0.7071 0.7071 0.7071 -95.6234 416.5362)" fill-rule="evenodd" fill="#FFF5F0" cx="454.992" cy="323.696" rx="7.048" ry="7.048"/>
		<circle fill-rule="evenodd" fill="#CB181D" cx="609.068" cy="363.757" r="7.048"/>
		<circle fill-rule="evenodd" fill="#FCBBA1" cx="549.38" cy="470.296" r="7.048"/>
		<circle fill-rule="evenodd" fill="#FB6A4A" cx="549.38" cy="470.296" r="7.048"/>
		<circle fill-rule="evenodd" fill="#FEE0D2" cx="549.38" cy="470.296" r="7.048"/>
		
			<ellipse transform="matrix(0.2298 -0.9732 0.9732 0.2298 125.5836 908.3007)" fill-rule="evenodd" fill="#FEE0D2" cx="636.636" cy="374.809" rx="7.048" ry="7.048"/>
		<circle fill-rule="evenodd" fill="#FCBBA1" cx="529.938" cy="310.841" r="7.048"/>
		<circle fill-rule="evenodd" fill="#CB181D" cx="473.962" cy="396.385" r="7.048"/>
		<circle fill-rule="evenodd" fill="#FFF5F0" cx="444.06" cy="305.084" r="7.048"/>
		<circle fill-rule="evenodd" fill="#FCBBA1" cx="591.865" cy="300.445" r="7.048"/>
		<circle fill-rule="evenodd" fill="#FFF5F0" cx="522.368" cy="449.647" r="7.048"/>
		
			<ellipse transform="matrix(0.2898 -0.9571 0.9571 0.2898 -141.8636 694.4138)" fill-rule="evenodd" fill="#CB181D" cx="396.967" cy="442.795" rx="7.048" ry="7.048"/>
		
			<ellipse transform="matrix(0.7071 -0.7071 0.7071 0.7071 -129.2391 512.5983)" fill-rule="evenodd" fill="#FEE0D2" cx="554.141" cy="412.305" rx="7.048" ry="7.048"/>
		
			<ellipse transform="matrix(0.7071 -0.7071 0.7071 0.7071 -129.2391 512.5983)" fill-rule="evenodd" fill="#FCBBA1" cx="554.141" cy="412.305" rx="7.048" ry="7.048"/>
		
			<ellipse transform="matrix(0.9239 -0.3827 0.3827 0.9239 -129.046 215.6244)" fill-rule="evenodd" fill="#FEE0D2" cx="477.486" cy="432.192" rx="7.048" ry="7.048"/>
		
			<ellipse transform="matrix(0.2298 -0.9732 0.9732 0.2298 -104.1646 769.6493)" fill-rule="evenodd" fill="#FEE0D2" cx="434.164" cy="450.633" rx="7.048" ry="7.048"/>
		<circle fill-rule="evenodd" fill="#FFF5F0" cx="547.567" cy="327.441" r="7.048"/>
		
			<ellipse transform="matrix(0.2298 -0.9732 0.9732 0.2298 60.5837 746.7125)" fill-rule="evenodd" fill="#FFF5F0" cx="502.048" cy="335.081" rx="7.048" ry="7.048"/>
		<circle fill-rule="evenodd" fill="#FFF5F0" cx="517.208" cy="509.921" r="7.048"/>
		<circle fill-rule="evenodd" fill="#FFF5F0" cx="517.172" cy="509.606" r="7.048"/>
		<circle fill-rule="evenodd" fill="#FCBBA1" cx="445.475" cy="311.086" r="7.048"/>
		<circle fill-rule="evenodd" fill="#FFF5F0" cx="634.318" cy="368.822" r="7.048"/>
		<circle fill-rule="evenodd" fill="#FEE0D2" cx="626.294" cy="311.136" r="7.048"/>
		<circle fill-rule="evenodd" fill="#FEE0D2" cx="560.31" cy="482.5" r="7.048"/>
		
			<ellipse transform="matrix(0.7071 -0.7071 0.7071 0.7071 29.9077 533.9188)" fill-rule="evenodd" fill="#FFF5F0" cx="659.451" cy="230.858" rx="7.048" ry="7.048"/>
		
			<ellipse transform="matrix(0.7071 -0.7071 0.7071 0.7071 -148.3695 580.7462)" fill-rule="evenodd" fill="#FEE0D2" cx="626.838" cy="469.471" rx="7.048" ry="7.048"/>
		
			<ellipse transform="matrix(0.9239 -0.3827 0.3827 0.9239 -122.1139 213.4544)" fill-rule="evenodd" fill="#FEE0D2" cx="475.497" cy="413.681" rx="7.048" ry="7.048"/>
		
			<ellipse transform="matrix(0.2298 -0.9732 0.9732 0.2298 179.9384 848.4441)" fill-rule="evenodd" fill="#FCBBA1" cx="625.997" cy="310.541" rx="7.048" ry="7.048"/>
		<circle fill-rule="evenodd" fill="#FFF5F0" cx="636.618" cy="368.822" r="7.048"/>
		<circle fill-rule="evenodd" fill="#FEE0D2" cx="637.951" cy="375.136" r="7.048"/>
		<circle fill-rule="evenodd" fill="#FEE0D2" cx="636.618" cy="368.822" r="7.048"/>
		
			<ellipse transform="matrix(0.7071 -0.7071 0.7071 0.7071 -168.4338 425.4182)" fill-rule="evenodd" fill="#FEE0D2" cx="429.308" cy="416.027" rx="7.048" ry="7.048"/>
		<circle fill-rule="evenodd" fill="#FFF5F0" cx="502.05" cy="335.093" r="7.048"/>
		
			<ellipse transform="matrix(0.9239 -0.3827 0.3827 0.9239 -109.1541 266.0796)" fill-rule="evenodd" fill="#FFF5F0" cx="614.26" cy="407.417" rx="7.048" ry="7.048"/>
		<circle fill-rule="evenodd" fill="#FFF5F0" cx="308.119" cy="394.304" r="7.048"/>
		<circle fill-rule="evenodd" fill="#FEE0D2" cx="346.796" cy="222.944" r="7.048"/>
		<circle fill-rule="evenodd" fill="#FFF5F0" cx="440.744" cy="453.753" r="7.048"/>
		
			<ellipse transform="matrix(0.2298 -0.9732 0.9732 0.2298 47.3808 872.6708)" fill-rule="evenodd" fill="#FFF5F0" cx="575.024" cy="406.401" rx="7.048" ry="7.048"/>
		
			<ellipse transform="matrix(0.1602 -0.9871 0.9871 0.1602 220.4424 859.9436)" fill-rule="evenodd" fill="#FFF5F0" cx="615.593" cy="300.422" rx="7.048" ry="7.048"/>
		<circle fill-rule="evenodd" fill="#FFF5F0" cx="451.221" cy="428.728" r="7.048"/>
		
			<ellipse transform="matrix(0.1602 -0.9871 0.9871 0.1602 -12.3268 946.882)" fill-rule="evenodd" fill="#FFF5F0" cx="550.3" cy="480.685" rx="7.048" ry="7.048"/>
		<circle fill-rule="evenodd" fill="#FFF5F0" cx="564.19" cy="479.499" r="7.048"/>
		<circle fill-rule="evenodd" fill="#FFF5F0" cx="582.861" cy="259.901" r="7.048"/>
		
			<ellipse transform="matrix(0.9239 -0.3827 0.3827 0.9239 -89.3134 216.6414)" fill-rule="evenodd" fill="#67000D" cx="499.909" cy="332.825" rx="7.048" ry="7.048"/>
		
			<ellipse transform="matrix(0.1891 -0.982 0.982 0.1891 -644.476 -298.1337)" fill-rule="evenodd" fill="#67000D" cx="-502.752" cy="241.15" rx="3.116" ry="3.116"/>
	</g>
	<g id="dot-2000_1_">
		<circle fill-rule="evenodd" fill="#FFF5F0" cx="637.564" cy="380.073" r="7.048"/>
		<circle fill-rule="evenodd" fill="#FFF5F0" cx="185.917" cy="297.96" r="7.048"/>
		
			<ellipse transform="matrix(0.1602 -0.9871 0.9871 0.1602 466.9656 828.1616)" fill-rule="evenodd" fill="#FCBBA1" cx="720.177" cy="139.655" rx="7.048" ry="7.048"/>
		<circle fill-rule="evenodd" fill="#FCBBA1" cx="513.442" cy="248.746" r="7.048"/>
		
			<ellipse transform="matrix(0.7071 -0.7071 0.7071 0.7071 -5.052 532.0242)" fill-rule="evenodd" fill="#CB181D" cx="639.684" cy="272.11" rx="7.048" ry="7.048"/>
		<circle fill-rule="evenodd" fill="#FCBBA1" cx="560.433" cy="381.762" r="7.048"/>
		<circle fill-rule="evenodd" fill="#A50F15" cx="515.319" cy="447.629" r="7.048"/>
		<circle fill-rule="evenodd" fill="#FFF5F0" cx="591.865" cy="300.445" r="7.048"/>
		<circle fill-rule="evenodd" fill="#A50F15" cx="-491.189" cy="309.052" r="3.116"/>
		
			<ellipse transform="matrix(0.9239 -0.3827 0.3827 0.9239 -134.3019 -146.293)" fill-rule="evenodd" fill="#FFF5F0" cx="-434.884" cy="264.445" rx="3.116" ry="3.116"/>
		<circle fill-rule="evenodd" fill="#FFF5F0" cx="-657.56" cy="223.96" r="3.116"/>
		<path fill-rule="evenodd" fill="#FCBBA1" d="M-391.037,145.911c0,1.721-1.395,3.116-3.116,3.116s-3.116-1.395-3.116-3.116
			c0-1.721,1.395-3.116,3.116-3.116S-391.037,144.19-391.037,145.911z"/>
		
			<ellipse transform="matrix(0.7071 -0.7071 0.7071 0.7071 -286.505 -292.2914)" fill-rule="evenodd" fill="#FCBBA1" cx="-496.079" cy="199.696" rx="3.116" ry="3.116"/>
		<circle fill-rule="evenodd" fill="#CB181D" cx="-433.838" cy="211.216" r="3.116"/>
		<circle fill-rule="evenodd" fill="#FCBBA1" cx="-472.911" cy="265.277" r="3.116"/>
		<circle fill-rule="evenodd" fill="#FFF5F0" cx="-457.414" cy="225.185" r="3.116"/>
	</g>
	<g id="path-1_1_">
		<g>
			<path fill="#020202" d="M556.419,479.805c-2.08-4.019-4.068-7.86-6.055-11.701c-0.751-1.451-1.523-2.892-2.244-4.358
				c-3.165-6.426,1.58-13.734,8.736-13.472c6.338,0.233,10.756,6.976,8.089,12.775C562.354,468.681,559.336,474.115,556.419,479.805
				z M552.041,461.426c1.234-0.461,2.468-0.923,3.766-1.408c0.106,1.039,0.301,1.971-0.899,2.448
				c-0.211,0.084-0.283,0.519-0.42,0.792c0.053,0.06,0.106,0.121,0.159,0.181c1.176-0.813,2.363-0.823,3.638-0.122
				c-0.106-0.418-0.246-0.755-0.497-0.941c-0.954-0.707-1.075-1.036-0.679-2.324c1.226,0.459,2.451,0.918,3.675,1.377
				c0.08-0.076,0.159-0.153,0.239-0.229c-0.236-0.363-0.411-0.793-0.72-1.076c-0.621-0.57-1.27-1.137-1.99-1.564
				c-1.113-0.66-1.556-1.53-1.386-2.819c0.061-0.46-0.204-0.963-0.32-1.446c-0.109,0.004-0.218,0.008-0.327,0.012
				c-0.13,0.28-0.333,0.55-0.372,0.843c-0.069,0.51-0.071,1.036-0.039,1.551c0.033,0.535-0.112,0.904-0.574,1.234
				c-0.953,0.68-1.833,1.463-2.783,2.148C552.022,460.435,551.825,460.814,552.041,461.426z"/>
		</g>
		
			<line fill="#595858" stroke="#595858" stroke-width="2" stroke-miterlimit="10" x1="436.357" y1="452.293" x2="523.361" y2="471.891"/>
		<g>
			<line fill="#595959" x1="522.966" y1="471.802" x2="557.141" y2="479.499"/>
			<g>
				
					<line fill="none" stroke="#595959" stroke-width="2" stroke-miterlimit="10" stroke-dasharray="5.6693,2.8346,1.4173,2.8346" x1="522.966" y1="471.802" x2="556.083" y2="479.261"/>
				<g>
					<polygon fill="#595959" points="551.952,482.523 551.448,481.659 555.709,479.178 552.923,475.109 553.749,474.544 
						557.141,479.5 					"/>
				</g>
			</g>
		</g>
		
			<ellipse transform="matrix(0.9239 -0.3827 0.3827 0.9239 -140.2329 236.0999)" fill-rule="evenodd" fill="#A50F15" cx="523.361" cy="470.55" rx="7.048" ry="7.048"/>
		<circle fill-rule="evenodd" fill="none" stroke="#F9F9F9" stroke-miterlimit="10" cx="523.361" cy="470.55" r="3.535"/>
		<g>
			<path fill="#595858" d="M437.223,453.086c-2.622-5.074-5.214-10.027-7.739-15.014c-0.802-1.583-1.665-3.196-2.092-4.898
				c-1.374-5.485,2.535-11.245,8.05-12.104c5.987-0.933,11.333,3.091,11.898,8.928c0.186,1.922-0.082,3.762-0.957,5.471
				c-2.956,5.774-5.949,11.529-8.93,17.291C437.416,452.833,437.358,452.897,437.223,453.086z M436.567,431.566
				c0.256,1.227,0.227,2.189-1.012,2.708c-0.208,0.087-0.261,0.545-0.467,1.017c0.889-0.322,1.525-0.735,2.159-0.733
				c0.652,0.002,1.303,0.409,1.955,0.638c0.057-0.049,0.114-0.099,0.171-0.148c-0.15-0.279-0.234-0.72-0.46-0.812
				c-1.287-0.521-1.154-1.52-0.979-2.674c1.394,0.521,2.745,1.026,4.097,1.531c0.233-0.665,0.036-1.095-0.515-1.466
				c-0.667-0.449-1.234-1.051-1.917-1.468c-1.335-0.815-2.068-1.843-1.775-3.498c0.075-0.422-0.248-0.915-0.444-1.558
				c-0.976,1.014-0.691,1.986-0.701,2.875c-0.006,0.558-0.14,0.933-0.607,1.274c-1.061,0.773-2.053,1.639-3.116,2.409
				c-0.539,0.391-0.684,0.807-0.457,1.432C433.867,432.581,435.194,432.082,436.567,431.566z"/>
		</g>
		<g>
			<path fill="none" stroke="#F9F9F9" stroke-miterlimit="10" d="M523.975,466.12c46.374-67.263,108.549-84.248,184.724-56.69"/>
			<g>
				<polygon fill="#F9F9F9" points="529.239,465.783 529.035,464.803 524.209,465.816 523.552,460.929 522.56,461.063 
					523.362,467.015 				"/>
			</g>
		</g>
	</g>
	<g id="path-3_2_">
		<path fill="none" stroke="#FCFCFC" stroke-miterlimit="10" d="M439.216,150.524c24.722,9.179,66.814,84.921,72.484,95.301"/>
		<g>
			<polygon fill="#FCFCFC" points="506.511,244.899 506.823,243.948 511.506,245.489 512.701,240.704 513.672,240.948 
				512.216,246.774 			"/>
		</g>
	</g>
	<g id="path-5_1_">
		<path fill="none" stroke="#FCFCFC" stroke-miterlimit="10" d="M500.362,331.842c22.6-48.112,135.797-155.653,226.865-98.019"/>
		<g>
			<polygon fill="#FCFCFC" points="505.521,330.686 505.165,329.751 500.558,331.508 499.142,326.785 498.183,327.073 
				499.91,332.826 			"/>
		</g>
	</g>
</g>
<style>
#g-map-Artboard_1-interactive-img rect, #g-map-Artboard_1-interactive-img circle, #g-map-Artboard_1-interactive-img path, #g-map-Artboard_1-interactive-img line, #g-map-Artboard_1-interactive-img polyline, #g-map-Artboard_1-interactive-img polygon { vector-effect: non-scaling-stroke; }
</style>
</svg>

